<svg xmlns="http://www.w3.org/2000/svg" xmlns:xlink="http://www.w3.org/1999/xlink" width="1920" height="1080" viewBox="0 0 1920 1080">
  <defs>
    <clipPath id="clip-Branding_1">
      <rect width="1920" height="1080"/>
    </clipPath>
  </defs>
  <g id="Branding_1" clip-path="url(#clip-Branding_1)">
    <rect width="1920" height="1080" fill="#fff"/>
    <g id="name" transform="translate(-0.75)">
      <path id="Path_1" data-name="Path 1" d="M343.645,476.867l-3.327-63.48,93.16-18.156-93.231,7.02,40.933-39.192,111.071,16.085,11.193,46.464-2.459-46.922,15.943,2.079,9.577,94.176L489.909,582.8l37.753-96.5,6.973,68.568L483.153,657.84,478.071,668l-34.919,69.837-154.936,130,19.623-64.15,19.973-24.707,32.263,11.857-2.529-48.263,17.132-27.325,2.992-36.351,87.6-60.236-79.9,44.9,30.54-60.795-5.036-11.31L465.27,447.687,405.242,578.813l-16.273-36.544-9,7.941L347.1,542.8l-3.389-64.674Z" transform="matrix(-0.052, 0.999, -0.999, -0.052, 1938.563, 245.231)"/>
      <text id="sonic_Squirrels" data-name="sonic
Squirrels" transform="translate(353.25 432.869)" font-size="113" font-family="Vermin-Vibes-Slant, Vermin Vibes Slant"><tspan x="0" y="0">sonic</tspan><tspan x="0" y="125">Squirrels</tspan></text>
      <path id="Path_3" data-name="Path 3" d="M7327.023,523.794l9.129-16.019,8.573-3.118,15.1-3.118,30.034,11.661-16-14.389,51.83-7.794,18.412,35.436h-17.028l-13.464-1.922-50.923-5.7-1.951,4.967Z" transform="translate(-5971)"/>
      <text id="_2930" data-name="2930" transform="translate(285.25 606.5)" font-size="40" font-family="Vermin-Vibes-Slant, Vermin Vibes Slant"><tspan x="0" y="0">2930</tspan></text>
    </g>
    <path id="_5" data-name="5" d="M977.972,150h97.7L723.188,846.7H631Z" transform="translate(1074.333 41.651)" fill="#ff8000" style="mix-blend-mode: lighten;isolation: isolate"/>
  </g>
</svg>
