<svg xmlns="http://www.w3.org/2000/svg" xmlns:xlink="http://www.w3.org/1999/xlink" width="1920" height="1080" viewBox="0 0 1920 1080">
  <defs>
    <clipPath id="clip-path">
      <rect id="Rectangle_7" data-name="Rectangle 7" width="748" height="526" transform="translate(586 234)" fill="#fff"/>
    </clipPath>
    <clipPath id="clip-path-2">
      <rect id="Rectangle_5" data-name="Rectangle 5" width="748.068" height="612.241" fill="none"/>
    </clipPath>
    <clipPath id="clip-_2024Branding_3">
      <rect width="1920" height="1080"/>
    </clipPath>
  </defs>
  <g id="_2024Branding_3" data-name="2024Branding_3" clip-path="url(#clip-_2024Branding_3)">
    <rect width="1920" height="1080" fill="#fff"/>
    <g id="Mask_Group_1" data-name="Mask Group 1" transform="translate(0 43)" clip-path="url(#clip-path)">
      <g id="Group_19" data-name="Group 19" transform="translate(585.967 233.88)">
        <g id="Group_18" data-name="Group 18" transform="translate(0 0)" clip-path="url(#clip-path-2)">
          <path id="Path_23" data-name="Path 23" d="M0,389.062,115.524,146.971a180.353,180.353,0,0,1,161.313-99.7H557.05L656.1,4.652a57.1,57.1,0,0,1,63.977,13.135l27.994,29.485L517.75,513.429l-354.1-.167a90.074,90.074,0,0,1-62.95-25.686ZM506.2,189.99l13.089-26.179H479.117A366.225,366.225,0,0,0,151.553,366.258l-15.316,30.633h35.189A374.287,374.287,0,0,0,506.2,189.99" transform="translate(0 0)"/>
          <path id="Path_24" data-name="Path 24" d="M377.088,232.615a95.207,95.207,0,1,1-95.207-95.207,95.207,95.207,0,0,1,95.207,95.207" transform="translate(64.452 47.442)"/>
          <path id="Path_25" data-name="Path 25" d="M562.175,166.342,535.669,127l-39.341,26.506,11.523,17.1L480.485,189.05c-6.276,4.228-10.263,6.915-20.767,4.867L394.438,180.7,553.513,73.526l-7.737,16.823,12.23,5.857,23.023-49.5L526.5,49.445l.834,13.536,18.5-.853L340.01,200.8l11.72-60.121c2.047-10.5,4.874-17.382,8.861-20.069l26.8-18.056c8.81,8.162,22.931,9.42,33.761,2.123a27.5,27.5,0,0,0-30.726-45.606c-10.829,7.3-14.39,20.467-10.712,32.086l-26.8,18.057c-9.7,6.533-13.061,18.748-14.542,28.869l-14.509,74.436-31.932,21.513a34.571,34.571,0,0,0-43.3-3.982,34.378,34.378,0,1,0,38.419,57.022,34.571,34.571,0,0,0,12.57-41.621L378.3,192.44l79.213,15.442c16.229,3.164,24.2-2.209,31.046-6.819l27.368-18.44,7.3,10.829,39.341-26.506ZM398.1,70.468a13.755,13.755,0,1,1-3.721,19.093A13.795,13.795,0,0,1,398.1,70.468M278.98,275.075a20.625,20.625,0,1,1,5.581-28.63,20.253,20.253,0,0,1-5.581,28.63M531.94,146.082l11.143,16.539-16.539,11.141L515.4,157.225Z" transform="translate(80.562 16.124)" fill="#fff"/>
          <path id="Path_26" data-name="Path 26" d="M322.738,516.875l42.337-21.4-21.4-42.337-18.407,9.3-14.885-29.452c-3.414-6.753-5.583-11.043-2.243-21.211l21.246-63.125,86.523,171.187-15.727-9.772-7.336,11.405,46.25,29.011,4.071-54.444-13.535-.857-1.458,18.458L316.225,292.149l58.192,19.117c10.167,3.339,16.64,7,18.808,11.292L407.8,351.4c-9.2,7.724-12.2,21.579-6.312,33.233a27.5,27.5,0,1,0,49.078-24.805c-5.89-11.654-18.515-16.828-30.5-14.626L405.488,316.36c-5.273-10.434-16.975-15.3-26.833-18.025l-72.048-23.67L289.239,240.3a34.571,34.571,0,0,0,9.346-42.465,34.379,34.379,0,1,0-61.364,31.016,34.571,34.571,0,0,0,39.732,17.658l42.8,84.673L294.56,407.856c-5.16,15.709-.823,24.292,2.9,31.654l14.885,29.452-11.654,5.89,21.4,42.337ZM438.3,366.026a13.754,13.754,0,1,1-18.48-6.07,13.792,13.792,0,0,1,18.48,6.07M250.133,222.341a20.625,20.625,0,1,1,27.711,9.1,20.252,20.252,0,0,1-27.711-9.1M346.607,489.4l-17.8,9-8.994-17.8,17.8-9Z" transform="translate(80.59 61.754)" fill="#fff"/>
        </g>
      </g>
    </g>
  </g>
</svg>
