<svg xmlns="http://www.w3.org/2000/svg" xmlns:xlink="http://www.w3.org/1999/xlink" width="1920" height="1080" viewBox="0 0 1920 1080">
  <defs>
    <clipPath id="clip-path">
      <rect id="Rectangle_3" data-name="Rectangle 3" width="1695.142" height="238.838" fill="none"/>
    </clipPath>
    <clipPath id="clip-_2024Branding_2">
      <rect width="1920" height="1080"/>
    </clipPath>
  </defs>
  <g id="_2024Branding_2" data-name="2024Branding_2" clip-path="url(#clip-_2024Branding_2)">
    <rect width="1920" height="1080" fill="#fff"/>
    <g id="Group_15" data-name="Group 15" transform="translate(112.429 420.581)">
      <g id="Group_14" data-name="Group 14" clip-path="url(#clip-path)">
        <path id="Path_9" data-name="Path 9" d="M0,186.05,66.526,53A64.887,64.887,0,0,1,124.562,17.13H295.61L211.15,186.05H158.362L221.708,59.36H195.313L131.969,186.05H79.182L142.526,59.36H116.133L52.787,186.05Z"/>
        <path id="Path_10" data-name="Path 10" d="M233.255,186.05,299.8,52.955A64.807,64.807,0,0,1,357.768,17.13h171.1L444.4,186.05H391.618l31.672-63.345H317.716L286.043,186.05ZM444.4,80.475,454.964,59.36H349.387L338.83,80.475Z"/>
        <path id="Path_11" data-name="Path 11" d="M466.511,186.049h0a76.393,76.393,0,0,1,68.328-42.229H728.776l-21.115,42.229Zm31.672-63.344h0a76.4,76.4,0,0,1,68.33-42.23H730.448l-21.115,42.23Zm31.673-63.346h0a76.394,76.394,0,0,1,68.329-42.228H762.122L741.005,59.359Z"/>
        <path id="Path_12" data-name="Path 12" d="M699.766,186.05l21.114-42.229H879.244L889.8,122.705H731.438l35.153-70.3A63.8,63.8,0,0,1,823.66,17.13H995.376L974.261,59.36H815.9L805.341,80.475H963.7L910.916,186.05Z"/>
        <path id="Path_13" data-name="Path 13" d="M1012.2,186.05l63.346-126.69H966.365L987.48,17.13h241.151a76.4,76.4,0,0,1-68.33,42.23h-31.967l-63.345,126.69Z"/>
        <path id="Path_14" data-name="Path 14" d="M1430.214,238.838,1288.353,96.976a9.666,9.666,0,0,1,6.835-16.5h82.239l10.558-21.116H1282.408L1219.064,186.05h-52.787l63.914-127.829a74.335,74.335,0,0,1,66.487-41.091h165.209l-38.624,77.247a51.246,51.246,0,0,1-45.836,28.328l116.132,116.133Z"/>
        <path id="Path_15" data-name="Path 15" d="M1424.065,140.983l41.863-87.726a65.354,65.354,0,0,1,58.455-36.127h101.54l35.892-15.445A20.691,20.691,0,0,1,1685,6.445l10.144,10.685-83.46,168.92-128.314-.06a32.637,32.637,0,0,1-22.811-9.309ZM1607.5,68.846l4.743-9.487h-14.557a132.708,132.708,0,0,0-118.7,73.361l-5.55,11.1h12.751A135.63,135.63,0,0,0,1607.5,68.846"/>
        <path id="Path_16" data-name="Path 16" d="M1584.065,101.483a34.5,34.5,0,1,1-34.5-34.5,34.5,34.5,0,0,1,34.5,34.5"/>
        <path id="Path_17" data-name="Path 17" d="M1656.973,66.119l-9.6-14.255-14.256,9.6,4.176,6.2-9.917,6.681c-2.274,1.532-3.719,2.506-7.525,1.764l-23.655-4.789,57.643-38.837-2.8,6.1,4.432,2.122,8.342-17.938-19.759.994.3,4.905,6.7-.309-74.584,50.251,4.247-21.786c.741-3.806,1.766-6.3,3.211-7.272l9.711-6.544a9.993,9.993,0,1,0,1.1-15.756,10.162,10.162,0,0,0-3.882,11.627l-9.712,6.543c-3.513,2.367-4.733,6.794-5.269,10.462l-5.258,26.973-11.571,7.8a12.527,12.527,0,0,0-15.69-1.443,12.458,12.458,0,1,0,13.922,20.663,12.528,12.528,0,0,0,4.555-15.083l28.512-19.21,28.7,5.595c5.881,1.147,8.771-.8,11.25-2.471l9.917-6.681,2.644,3.924,14.256-9.605Zm-59.454-34.741a4.984,4.984,0,1,1-1.348,6.919,5,5,0,0,1,1.348-6.919m-43.167,74.143a7.474,7.474,0,1,1,2.022-10.374,7.339,7.339,0,0,1-2.022,10.374m91.665-46.743,4.038,5.993-5.993,4.038-4.038-5.993Z" fill="#fff"/>
        <path id="Path_18" data-name="Path 18" d="M1570.219,209.676l15.341-7.753-7.754-15.342-6.67,3.371-5.394-10.672c-1.237-2.447-2.023-4-.813-7.686l7.7-22.875,31.354,62.033-5.7-3.541-2.658,4.133,16.76,10.512,1.475-19.729-4.9-.311-.529,6.69-40.568-80.263,21.087,6.927c3.684,1.211,6.03,2.537,6.816,4.092l5.282,10.452a9.993,9.993,0,1,0,15.5,3.054,10.164,10.164,0,0,0-11.053-5.3l-5.282-10.45c-1.911-3.782-6.151-5.544-9.724-6.533l-26.108-8.577-6.293-12.451a12.529,12.529,0,0,0,3.386-15.388,12.458,12.458,0,1,0-22.237,11.239,12.529,12.529,0,0,0,14.4,6.4l15.508,30.683-9.127,27.784c-1.87,5.692-.3,8.8,1.05,11.47l5.394,10.672-4.223,2.135,7.754,15.341Zm41.877-54.663a4.984,4.984,0,1,1-6.7-2.2,5,5,0,0,1,6.7,2.2m-68.187-52.066a7.474,7.474,0,1,1,10.041,3.3,7.338,7.338,0,0,1-10.041-3.3m34.959,96.773-6.449,3.26-3.26-6.45,6.449-3.259Z" fill="#fff"/>
      </g>
    </g>
  </g>
</svg>
