<svg xmlns="http://www.w3.org/2000/svg" xmlns:xlink="http://www.w3.org/1999/xlink" width="1920" height="1080" viewBox="0 0 1920 1080">
  <defs>
    <clipPath id="clip-path">
      <rect id="Rectangle_4" data-name="Rectangle 4" width="351.077" height="287.332" fill="none"/>
    </clipPath>
    <clipPath id="clip-_2024Branding_4">
      <rect width="1920" height="1080"/>
    </clipPath>
  </defs>
  <g id="_2024Branding_4" data-name="2024Branding_4" clip-path="url(#clip-_2024Branding_4)">
    <rect width="1920" height="1080" fill="#fff"/>
    <g id="Group_31" data-name="Group 31">
      <g id="Group_17" data-name="Group 17" transform="translate(258.426 396.334)">
        <g id="Group_16" data-name="Group 16" transform="translate(0 0)" clip-path="url(#clip-path)">
          <path id="Path_19" data-name="Path 19" d="M0,182.591,54.217,68.975a84.642,84.642,0,0,1,75.706-46.79H261.43l46.484-20a26.8,26.8,0,0,1,30.025,6.164l13.138,13.838L242.986,240.958,76.8,240.88a42.273,42.273,0,0,1-29.543-12.055ZM237.565,89.165l6.143-12.286H224.855A171.873,171.873,0,0,0,71.126,171.889l-7.188,14.376H80.453a175.657,175.657,0,0,0,157.113-97.1" transform="translate(0 0)"/>
          <path id="Path_20" data-name="Path 20" d="M276.037,182.09a44.682,44.682,0,1,1-44.682-44.682,44.682,44.682,0,0,1,44.682,44.682" transform="translate(-68.818 -50.656)"/>
          <path id="Path_21" data-name="Path 21" d="M387.663,102.85,375.224,84.387,356.761,96.826l5.408,8.028-12.844,8.653c-2.945,1.984-4.817,3.245-9.746,2.284l-30.637-6.2L383.6,59.29l-3.631,7.895,5.74,2.749,10.8-23.233-25.59,1.288.391,6.353,8.681-.4-96.6,65.081,5.5-28.216c.961-4.93,2.287-8.158,4.159-9.418l12.578-8.474a12.943,12.943,0,1,0,1.424-20.407,13.162,13.162,0,0,0-5.027,15.058L289.454,76.04c-4.55,3.066-6.13,8.8-6.825,13.549l-6.809,34.934-14.986,10.1a16.225,16.225,0,0,0-20.32-1.869,16.134,16.134,0,1,0,18.031,26.761,16.225,16.225,0,0,0,5.9-19.533L301.37,115.1l37.176,7.247c7.617,1.485,11.359-1.037,14.57-3.2l12.844-8.654,3.424,5.082,18.463-12.439Zm-77-44.995a6.455,6.455,0,1,1-1.746,8.961,6.474,6.474,0,0,1,1.746-8.961M254.757,153.88a9.68,9.68,0,1,1,2.619-13.436,9.505,9.505,0,0,1-2.619,13.436M373.474,93.342,378.7,101.1l-7.762,5.229-5.229-7.761Z" transform="translate(-86.02 -17.216)" fill="#fff"/>
          <path id="Path_22" data-name="Path 22" d="M275.337,337.5l19.869-10.043-10.042-19.869-8.639,4.366-6.986-13.822c-1.6-3.169-2.62-5.183-1.052-9.954l9.971-29.625,40.606,80.34-7.381-4.586-3.443,5.353,21.706,13.615,1.91-25.551-6.352-.4-.684,8.663-52.54-103.95L299.59,241c4.772,1.567,7.809,3.286,8.827,5.3l6.841,13.535a12.943,12.943,0,1,0,20.071,3.955,13.161,13.161,0,0,0-14.315-6.864l-6.842-13.536c-2.475-4.9-7.966-7.178-12.593-8.459l-33.813-11.109L259.615,207.7A16.224,16.224,0,0,0,264,187.767a16.134,16.134,0,1,0-28.8,14.556,16.225,16.225,0,0,0,18.647,8.287l20.085,39.738-11.821,35.983c-2.422,7.372-.386,11.4,1.361,14.856l6.986,13.822-5.469,2.764,10.042,19.869Zm54.236-70.8a6.455,6.455,0,1,1-8.673-2.849,6.473,6.473,0,0,1,8.673,2.849m-88.311-67.433a9.68,9.68,0,1,1,13.005,4.272,9.5,9.5,0,0,1-13.005-4.272M286.539,324.6l-8.353,4.222-4.221-8.353,8.352-4.222Z" transform="translate(-86.05 -65.938)" fill="#fff"/>
        </g>
      </g>
      <text id="sonic_Squirrels" data-name="sonic
Squirrels" transform="translate(615.574 520.165)" font-size="91" font-family="Vermin-Vibes-Slant, Vermin Vibes Slant"><tspan x="0" y="0">sonic</tspan><tspan x="0" y="100">Squirrels</tspan></text>
    </g>
  </g>
</svg>
