<svg xmlns="http://www.w3.org/2000/svg" xmlns:xlink="http://www.w3.org/1999/xlink" width="1920" height="1080" viewBox="0 0 1920 1080"><defs><clipPath id="a"><path d="M128,0A128,128,0,1,1,0,128,128,128,0,0,1,128,0Z" transform="translate(0 0)" fill="#fff"/></clipPath><clipPath id="b"><rect width="705" height="397" transform="translate(0.306)" fill="#fff" stroke="#707070" stroke-width="1"/></clipPath><clipPath id="c"><rect width="705" height="264" transform="translate(0.306 0.245)" fill="#fff"/></clipPath><linearGradient id="d" x2="1" y2="1" gradientUnits="objectBoundingBox"><stop offset="0" stop-color="#07133d"/><stop offset="1" stop-color="#000206"/></linearGradient><linearGradient id="e" x1="0.5" x2="0.5" y2="1" gradientUnits="objectBoundingBox"><stop offset="0" stop-color="#545777"/><stop offset="1" stop-opacity="0.529"/></linearGradient><linearGradient id="f" x2="1" y2="1" gradientUnits="objectBoundingBox"><stop offset="0"/><stop offset="1" stop-color="#143247"/></linearGradient><clipPath id="g"><path d="M26.124,0A26.124,26.124,0,1,1,0,26.124,26.124,26.124,0,0,1,26.124,0Z" fill="#fff"/></clipPath><clipPath id="h"><path d="M308.807,193.789a1.066,1.066,0,0,0,.94.542h72.718a1.088,1.088,0,0,0,.942-1.629l-11.587-20.2-.177-.309-12.352-21.531-.177-.309-12.065-21.03a1.088,1.088,0,0,0-1.887,0L333.1,150.357l-.177.309L320.569,172.2l-.177.309-11.587,20.2a1.067,1.067,0,0,0,0,1.086Z" transform="translate(-308.657 -128.78)" fill="none"/></clipPath><clipPath id="i"><rect width="705" height="397" transform="translate(0.306 -0.265)" fill="#fff"/></clipPath><linearGradient id="j" x1="0.5" x2="0.5" y2="1" gradientUnits="objectBoundingBox"><stop offset="0" stop-color="#feae6b"/><stop offset="1" stop-color="#cc1709"/></linearGradient><linearGradient id="k" x1="0.5" x2="0.5" y2="1" gradientUnits="objectBoundingBox"><stop offset="0" stop-color="#ffdb9c"/><stop offset="1" stop-color="#ef4600"/></linearGradient><clipPath id="n"><rect width="1920" height="1080"/></clipPath></defs><g id="m" clip-path="url(#n)"><rect width="1920" height="1080" fill="#fff"/><rect width="849" height="401" transform="translate(0 679)"/><g transform="translate(-2078 718)"><text transform="translate(2374 -191)" font-size="96" font-family="Inter" font-weight="600"><tspan x="0" y="0">West Coast</tspan><tspan x="0" y="96">Invitational</tspan></text><g transform="translate(2098 -305)" clip-path="url(#a)"><path d="M0,13.752S54.357-4.827,99.26,1.2c30.308,4.071,6.085-5.327,28.621,22.128,11.7,14.249.647,2.1,20.167-.166,17.822-2.071,35.859,13.619,35.859,13.619s-26.685-.595-38.264,16.722c-16.888,25.256-8.934,50.567-11.221,77.448-2.07,24.31,5.264,34.613,44.056,33.381,21.254-.676,56.6-26.162,75.927-23.767,26.244,3.255,45.924,41.349,45.924,41.349v67.058H0Z" transform="translate(15.376 -5.244) rotate(18)" fill="#043d46"/><path d="M0-362.169s55.592-14.777,100.5-8.744c26.312,3.534,23.347-1.555,55.645,12.865,22.705,10.137,37.156,38.742,37.156,38.742s-76.1-32.621-88.8,41.758c-2.292,35.634,35.192,67.2,73.984,65.964,25.029-2.9,56.6-26.162,75.927-23.767C280.647-232.1,300.327-194,300.327-194v67.057H0Z" transform="translate(2.537 396.53)" fill="#065d6a"/><path d="M0-388.668S8.711-409.93,53.612-403.9c20.969,2.817,30.661-35.885,65.753-33.453,65.188,4.517,96.816,81.744,96.816,81.744s-72.074-43.809-105.457-12.771c-20.779,19.32-28.754,32.852-28.206,58.162.723,33.391,28.519,59.445,59.23,72.148,26.976,11.159,60.861,12.377,71.159,9.47,21.956-6.2,27.5-5.234,49.9-21.509a263.35,263.35,0,0,0,35.112-30.655l2.413,127.319H0Z" transform="translate(-7.043 418.239)" fill="#016286"/><path d="M0-392.1l106.4-37.708,69.854,6.51s-67.91.743-96.955,27.12C45.04-365.064,34.2-310.99,69.4-264.843c31.309,41.05,87.8,45.23,114.409,40.906s65.34-18.033,76.584-19.043c34.785-3.124,39.935,19.043,39.935,19.043v67.061H0Z" transform="translate(-11.833 421.671)" fill="#078cbd"/><g transform="translate(0 0)" fill="none"><path d="M128,0A128,128,0,1,1,0,128,128,128,0,0,1,128,0Z" stroke="none"/><path d="M 128 10 C 62.93458557128906 10 10 62.93458557128906 10 128 C 10 193.0654144287109 62.93458557128906 246 128 246 C 193.0654144287109 246 246 193.0654144287109 246 128 C 246 62.93458557128906 193.0654144287109 10 128 10 M 128 0 C 198.6924133300781 0 256 57.30758666992188 256 128 C 256 198.6924133300781 198.6924133300781 256 128 256 C 57.30758666992188 256 0 198.6924133300781 0 128 C 0 57.30758666992188 57.30758666992188 0 128 0 Z" stroke="none" fill="#078cbd"/></g><path d="M0-333.588s18.788-12.425,21.853,0c8.327,33.766-3.981,105.549,76.659,148.1s137.346-13.89,161.8-14.865c25.913-1.033,40.014,23.669,40.014,23.669v67.059H0Z" transform="translate(-11.833 382.559)" fill="#29b4dd"/></g></g><text transform="translate(20 56)" fill="#707070" font-size="40" font-family="ArialMT, Arial"><tspan x="0" y="0">https://fonts.google.com/specimen/Inter</tspan></text><text transform="translate(20 252)" fill="#707070" font-size="40" font-family="ArialMT, Arial"><tspan x="0" y="0">https://fonts.google.com/specimen/Montserrat</tspan></text><text transform="translate(20 122)" font-size="60" font-family="Inter"><tspan x="0" y="0">Whereas a common understanding</tspan><tspan x="0" y="60">of these rights and freedoms is</tspan></text><text transform="translate(20 318)" font-size="60" font-family="Montserrat-Regular, Montserrat"><tspan x="0" y="0">Whereas a common understanding</tspan><tspan x="0" y="60">of these rights and freedoms is</tspan></text><g transform="translate(604.694 -14)"><g transform="translate(610 14)" clip-path="url(#b)"><g transform="translate(-124.561 -127.854)"><path d="M0,20.72S113.02-9.32,204.3,2.941c61.616,8.276,112.69,19.006,158.5,74.821,23.777,28.968,6.2-73.907,49.171-7.74s21.59,156.454,21.59,156.454-48.915-68.8-110.625-71.48-45.02,49.346-49.672,103.994c-4.207,49.421,10.7,70.367,89.565,67.86,43.209-1.374,115.067-53.187,154.356-48.318,53.354,6.613,93.362,84.061,93.362,84.061V498.921H0Z" transform="matrix(0.951, 0.309, -0.309, 0.951, 154.175, 12.763)" fill="#043d46"/><path d="M0-351.642s113.02-30.04,204.3-17.779c53.491,7.185,150,3.333,194.074,60.152s50.807,203.559,50.807,203.559S234.308-256,224.616-142.146C220.408-92.726,282.975-50.6,361.839-53.1c43.209-1.374,65.075-16.252,166.5-5.011S768.537-.547,768.537-.547V135.781L0,126.559Z" transform="translate(130.31 438.038)" fill="#065d6a"/><path d="M0-155.817s227.506-58.824,318.788-46.562c42.629,5.726,78.945,20.471,133.166,67.1S510.346,47.248,510.346,47.248s-65.2-79.105-141.2-100.407c-97.8-27.413-220.947-34.72-199.585,83.918,8.033,44.613,56.172,93.764,118.605,119.589,54.84,22.685,123.728,25.161,144.664,19.251,44.638-12.6,63.906-19.251,122.181-19.251S588.6,153.287,665.929,169.6,843.6,191.12,843.6,191.12L817.789,404.767,0,322.384Z" transform="translate(110.835 232.475)" fill="#016286"/><path d="M0-353.149l216.315-76.658,142.01,13.239s-138.055,1.511-197.106,55.134c-69.655,63.253-91.685,173.184-20.134,267C204.734-10.982,319.57-2.484,373.674-11.275S444.089-52.3,558.545-48.892,831.5,2.373,831.5,2.373V138.7L0,125.052Z" transform="translate(101.097 429.807)" fill="#078cbd"/><path d="M0-327.883s38.2-25.26,44.425,0c16.928,68.645-8.089,214.575,155.844,301.088S381.135-42.646,526.784-39.989,782.862-16.168,782.862-16.168V120.159L0,127.432Z" transform="translate(101.097 443.982)" fill="#29b4dd"/></g></g><g transform="translate(610 421.755)" clip-path="url(#c)"><g transform="translate(-230.861 -130.063)"><rect width="705" height="264" transform="translate(231.167 130.308)" fill="url(#d)"/><g transform="translate(0)"><circle cx="41.327" cy="41.327" r="41.327" transform="translate(656.049 142.186)" fill="url(#e)"/><g transform="translate(0)" style="isolation:isolate"><path d="M0,16.081S87.718-7.234,158.565,2.283c47.822,6.424,87.462,14.751,123.02,58.071,18.454,22.483,4.814-57.362,38.163-6.007S336.5,175.776,336.5,175.776s-37.964-53.4-85.86-55.478-34.941,38.3-38.552,80.713c-3.265,38.357,8.306,54.615,69.514,52.669,33.536-1.066,89.307-41.28,119.8-37.5,41.41,5.132,72.462,65.242,72.462,65.242V387.229H0Z" transform="matrix(0.951, 0.309, -0.309, 0.951, 119.66, 9.906)" fill="#021423"/><path d="M0-356.28s87.718-23.315,158.565-13.8c41.516,5.577,116.423,2.587,150.627,46.686S348.626-165.4,348.626-165.4s-166.772-116.643-174.295-28.28c-3.265,38.357,45.3,71.055,106.5,69.109,33.536-1.066,50.507-12.614,129.227-3.889s186.425,44.68,186.425,44.68V22.024L0,14.867Z" transform="translate(101.138 423.335)" fill="#052c4a"/><path d="M0-166.617s176.575-45.655,247.422-36.139c33.086,4.444,61.272,15.888,103.354,52.076S396.1-9.012,396.1-9.012s-50.6-61.4-109.589-77.929C210.6-108.217,115.023-113.888,131.6-21.81c6.235,34.626,43.6,72.773,92.054,92.817,42.563,17.606,96.03,19.529,112.278,14.942,34.645-9.78,49.6-14.942,94.828-14.942s26.067,2.281,86.087,14.942,137.893,16.7,137.893,16.7L634.713,268.47,0,204.53Z" transform="translate(86.022 226.114)" fill="#03345a"/><path d="M0-370.31l167.889-59.5,110.219,10.275s-107.149,1.173-152.98,42.792C71.066-327.647,53.967-242.327,109.5-169.515c49.4,64.771,138.528,71.367,180.52,64.544s54.651-31.844,143.484-29.2S722.232-90.1,722.232-90.1V15.7L0,.837Z" transform="translate(78.465 429.807)" fill="#00497a"/><path d="M0-330.4s29.645-19.6,34.48,0C47.618-277.119,28.2-163.857,155.435-96.712s140.376-12.3,253.419-10.241,307.4,47.065,307.4,47.065V45.92L0,22.988Z" transform="translate(78.465 420.504)" fill="#1c5174"/></g><text transform="translate(288.535 258.798)" fill="#fff" font-size="58" font-family="Montserrat" font-weight="800" font-style="italic"><tspan x="0" y="0">THE DEEP</tspan><tspan x="0" y="47">IS CALLING</tspan></text><rect width="235.102" height="264.49" transform="translate(701.065 130.063)" fill="url(#f)"/><rect width="470.204" height="264.49" transform="translate(230.861 130.063)" fill="none" opacity="0.1"/><g transform="translate(724.192 149.945)"><g transform="translate(0 117.401)" style="isolation:isolate"><g transform="translate(0)"><path d="M253.137,67.228a.207.207,0,0,1,.232-.235h3.972a3.343,3.343,0,0,1,2.71,1.239,4.919,4.919,0,0,1,1.03,3.249v8.7a5.123,5.123,0,0,1-1.076,3.249,3.254,3.254,0,0,1-2.619,1.239h-4.021a.2.2,0,0,1-.232-.232v-17.2h0Zm70.426,23.721.072-.007c.451-.046.9-.1,1.34-.15.114-.013.229-.029.343-.043q.687-.088,1.363-.186l.127-.02c.418-.062.83-.127,1.239-.2.111-.02.222-.036.333-.056.438-.075.87-.154,1.3-.235.056-.01.108-.023.163-.033.386-.075.768-.154,1.147-.232l.317-.069c.415-.088.827-.18,1.229-.275.062-.013.124-.029.186-.046.36-.085.713-.17,1.063-.258.1-.023.2-.049.294-.072.392-.1.781-.2,1.161-.3l.183-.049c.2-.056.4-.108.595-.163h0c2.324-.657,4.43-1.36,6.237-2.03-1.929.477-4.021.935-6.237,1.334V85.368a.645.645,0,0,0-.7-.7H321.34a.2.2,0,0,1-.232-.232V79.575a.206.206,0,0,1,.232-.232h8.65a.645.645,0,0,0,.7-.7V72.566a.645.645,0,0,0-.7-.7h-8.65a.2.2,0,0,1-.232-.232V67.241a.207.207,0,0,1,.232-.235h13.979a.645.645,0,0,0,.7-.7V60.183a.645.645,0,0,0-.7-.7h-22.3a.645.645,0,0,0-.7.7V88.365c-3.269-.742-5.718-1.808-9.281-2.671l7.552-25.42a.654.654,0,0,0-.072-.585.635.635,0,0,0-.536-.209h-7.807a.7.7,0,0,0-.749.608l-4.534,19.729c-.033.124-.078.186-.141.186s-.108-.062-.141-.186l-4.675-19.729a.7.7,0,0,0-.749-.608H283.2c-.438,0-.654.186-.654.562a.533.533,0,0,0,.046.232l7.051,23.985a32.206,32.206,0,0,0-8.781,1.062V60.17a.645.645,0,0,0-.7-.7h-7.388a.645.645,0,0,0-.7.7V88.428a20.781,20.781,0,0,1-6,1.092,9.47,9.47,0,0,0,3.8-7.846V69.987a9.707,9.707,0,0,0-1.589-5.515,10.344,10.344,0,0,0-4.511-3.694,16.256,16.256,0,0,0-6.708-1.308H245.052a.645.645,0,0,0-.7.7V88.686a18.033,18.033,0,0,0-5.8,3.822,16.761,16.761,0,0,1,5.809-3.021q.549-.157,1.128-.284l.141-.029c.144-.029.288-.059.435-.085.062-.01.124-.02.186-.033.134-.023.268-.046.405-.062l.209-.029.4-.049c.072-.01.147-.016.219-.023.137-.013.275-.026.412-.036.072-.007.144-.01.219-.016.15-.01.3-.016.451-.023.065,0,.127-.007.193-.007.193-.007.386-.007.582-.007h.075c.222,0,.451.007.677.013.052,0,.1.007.157.007.173.007.35.016.526.029l.245.02c.15.013.3.026.454.042l.278.029c.144.016.291.036.438.056.1.013.2.026.294.043l.445.069c.1.016.2.033.3.052.154.026.307.059.464.088l.294.059c.17.036.343.075.517.114.085.02.17.036.255.059.258.062.52.131.785.2.4.108.778.2,1.154.294.046.01.092.023.137.033.356.085.706.16,1.049.232l.16.033c.34.069.67.131.994.183l.128.02c.337.056.664.1.984.144h.033c.68.088,1.324.144,1.942.17h.029q.456.02.892.02h.036q.441,0,.863-.02h0a23.11,23.11,0,0,0,8.13-2.086l.02-.007.458-.186c.085-.036.17-.072.255-.1l.262-.108c.471-.193.948-.389,1.435-.582l.046-.016c.154-.062.311-.121.467-.18l.029-.01q.76-.289,1.572-.566l.02-.007c.726-.242,1.484-.467,2.295-.667l.023-.007q.912-.226,1.916-.4a31.774,31.774,0,0,1,5.973-.435c1.134.016,2.2.059,3.194.118.324.02.637.042.948.065.075.007.147.013.222.016.258.02.513.042.762.065l.15.013c.291.029.579.059.86.092l.163.02c.232.026.464.056.687.085l.18.023c.268.036.533.075.791.114l.042.007c.242.036.481.075.713.118l.167.029c.229.039.454.082.673.124l.046.01c.239.046.471.095.7.144l.134.029.575.127c.036.007.072.016.1.023.222.052.438.1.654.16l.059.013c.193.049.386.1.572.15l.111.029c.412.114.811.229,1.2.347l.085.026c.19.059.379.118.562.177h0l.595.2h.007c.193.069.386.134.575.2,3.475,1.206,6.283,2.5,10.742,3.04.033,0,.065.007.1.013.265.033.536.059.814.085h.046c.271.029.549.049.834.069l.078.007c.284.02.575.033.873.046.049,0,.1,0,.15.007.3.013.608.02.922.026h.052c.3.007.611.007.925,0h.17c.32,0,.651-.01.987-.016.069,0,.134,0,.2-.007.35-.01.706-.023,1.076-.043.487-.023.971-.056,1.452-.092.118-.01.239-.016.356-.026.474-.036.948-.078,1.416-.124h0Z" transform="translate(-193.636 -59.47)" fill="#fff"/><path d="M527.621,154.757a.525.525,0,0,1-.222-.177.462.462,0,0,1-.078-.268v-.052l.01-.02.02-.01h.275l.02.01.01.02v.036a.2.2,0,0,0,.088.163.408.408,0,0,0,.242.065.269.269,0,0,0,.19-.056.169.169,0,0,0,.062-.134.133.133,0,0,0-.039-.1.365.365,0,0,0-.1-.069c-.046-.02-.114-.049-.213-.082a1.889,1.889,0,0,1-.275-.114.587.587,0,0,1-.19-.157.388.388,0,0,1-.075-.248.432.432,0,0,1,.075-.252.467.467,0,0,1,.209-.167.747.747,0,0,1,.307-.059.8.8,0,0,1,.327.065.544.544,0,0,1,.226.183.459.459,0,0,1,.082.271v.036l-.01.02-.02.01h-.278l-.02-.01-.007-.02v-.02a.223.223,0,0,0-.085-.173.331.331,0,0,0-.229-.072.284.284,0,0,0-.177.049.159.159,0,0,0-.065.134.154.154,0,0,0,.036.1.328.328,0,0,0,.111.072c.049.023.124.052.229.088a2.85,2.85,0,0,1,.268.111.521.521,0,0,1,.177.144.383.383,0,0,1,.078.248.436.436,0,0,1-.167.36.706.706,0,0,1-.451.131.825.825,0,0,1-.337-.062Z" transform="translate(-388.005 -122.485)" fill="#fff"/><path d="M533.431,153.15h.281l.02.01.01.02v1.631l-.01.023-.02.007h-.281l-.02-.007-.01-.023v-1.062l0-.01-.01.007-.258.4-.033.016h-.144l-.033-.016-.255-.4-.01-.007-.007.01v1.062l-.006.023-.02.007h-.284l-.02-.007-.01-.023v-1.631l.01-.02.02-.01h.284l.033.02.363.562h.013l.366-.562.033-.02Z" transform="translate(-391.363 -122.525)" fill="#fff"/><path d="M103.53,93.82h7.048l-.664,2.713h-3.377l-.337,1.425h3.524l-.611,2.517h-3.478l-.837,3.573H101.16l2.37-10.229Z" transform="translate(-101.16 -82.591)" fill="#fff"/><path d="M128.013,93.82h3.642l-2.373,10.229H125.64l2.373-10.229Z" transform="translate(-117.637 -82.591)" fill="#fff"/><path d="M142.1,93.478l.232-.029c1.17-.137,2.622-.229,3.423-.229a8.483,8.483,0,0,1,3.158.474,2.536,2.536,0,0,1,1.6,2.406,3.8,3.8,0,0,1-.919,2.514,3.565,3.565,0,0,1-1.955,1.18l-.232.075a1.659,1.659,0,0,1,.183.154,24.018,24.018,0,0,1,1.854,3.619h-4.008c-.517-1.458-.667-1.84-1.353-3.495l-.8,3.495h-3.54l2.354-10.164h0Zm2.687,4.815a1.77,1.77,0,0,0,1.988-1.671c0-.523-.386-.781-1.134-.781a2.522,2.522,0,0,0-.569.062l-.552,2.36a1.345,1.345,0,0,0,.268.029" transform="translate(-127.128 -82.187)" fill="#fff"/><path d="M197.306,93.82h8.836l-.618,2.962H202.9l-1.736,7.267h-3.642l1.736-7.267H196.42l.886-2.962Z" transform="translate(-165.279 -82.591)" fill="#fff"/><path d="M214.326,119.52a.888.888,0,1,1-.886.886.876.876,0,0,1,.886-.886m0,1.664a.776.776,0,1,0-.775-.778.775.775,0,0,0,.775.778m-.343-1.232c.046,0,.052-.007.141-.013s.127-.01.167-.01c.291,0,.435.114.435.33a.245.245,0,0,1-.173.255h-.013l.016.02a2.319,2.319,0,0,1,.219.324h-.333c-.069-.127-.088-.16-.177-.3v.3h-.284v-.9h0Zm.317.425c.078,0,.124-.039.124-.111s-.043-.108-.121-.108h-.039v.212h.036" transform="translate(-176.735 -99.889)" fill="#fff"/><path d="M177.483,98.185a7.914,7.914,0,0,0-1.736-1.013l-.719-.337c-.235-.124-.35-.245-.35-.382,0-.366.467-.644,1.1-.644a7.267,7.267,0,0,1,2.122.49l.745-2.769a9.043,9.043,0,0,0-2.383-.33c-2.972,0-5.26,1.625-5.26,3.727,0,1.1.736,1.886,2.573,2.743.87.4,1.02.507,1.02.781,0,.415-.451.673-1.187.673a8.081,8.081,0,0,1-2.622-.615h0l-.8,2.854a11.44,11.44,0,0,0,3.187.474,5.577,5.577,0,0,0,3.439-1,3.8,3.8,0,0,0,1.7-2.9,2.269,2.269,0,0,0-.834-1.762" transform="translate(-147.489 -82.173)" fill="#fff"/><path d="M582.96,108.351a.179.179,0,0,1,.177.183v5.3a.179.179,0,0,1-.177.183h-.474a.192.192,0,0,1-.183-.183v-5.3a.192.192,0,0,1,.183-.183h.474m6.2,4.992a1.251,1.251,0,1,1,1.177-1.249,1.187,1.187,0,0,1-1.177,1.249m0-3.269a2.024,2.024,0,1,0,2.017,2.024,2,2,0,0,0-2.017-2.024m-2.226,3.4a.169.169,0,0,1-.039.265,2.033,2.033,0,0,1-1.232.382,2.029,2.029,0,0,1,0-4.057,2.042,2.042,0,0,1,1.232.386.171.171,0,0,1,.039.265l-.222.311c-.088.121-.193.088-.281.033a1.417,1.417,0,0,0-.745-.232,1.273,1.273,0,0,0,0,2.537,1.427,1.427,0,0,0,.729-.232c.088-.049.183-.088.281.039l.239.3Zm-7.454-.121a1.254,1.254,0,1,1,1.177-1.255,1.193,1.193,0,0,1-1.177,1.255m1.824-3.178h-.471a.185.185,0,0,0-.183.183v.32a1.494,1.494,0,0,0-1.255-.615,2.031,2.031,0,0,0-.007,4.057,1.517,1.517,0,0,0,1.265-.615v.337a.186.186,0,0,0,.183.177h.471a.178.178,0,0,0,.177-.177v-3.482a.179.179,0,0,0-.177-.183m22.138,3.645a.132.132,0,0,1-.127.193h-.526a.211.211,0,0,1-.209-.144l-.977-2.625-.991,2.625a.2.2,0,0,1-.209.144h-.471a.207.207,0,0,1-.209-.144l-1-2.641-.984,2.641a.214.214,0,0,1-.209.144h-.5a.219.219,0,0,1-.209-.144l-.977-2.641-1.007,2.641a.2.2,0,0,1-.209.144h-.471a.207.207,0,0,1-.209-.144l-.984-2.641-.984,2.641a.208.208,0,0,1-.209.144h-.513a.13.13,0,0,1-.127-.193l1.337-3.5a.208.208,0,0,1,.209-.15h.575a.217.217,0,0,1,.209.15l.945,2.553.951-2.553a.208.208,0,0,1,.209-.15h.569a.217.217,0,0,1,.209.15l.945,2.553.945-2.553a.208.208,0,0,1,.209-.15h.569a.217.217,0,0,1,.209.15l.961,2.553.935-2.553a.208.208,0,0,1,.209-.15h.575a.217.217,0,0,1,.209.15l1.337,3.5m-32.413-.938-.366-.958a.228.228,0,0,0-.239-.15h-.481a.157.157,0,0,0-.16.232l.484,1.259a2.136,2.136,0,0,1-.51.062,2.148,2.148,0,1,1,2.023-2.145,2.168,2.168,0,0,1-.752,1.7m-1.272-4.636a2.936,2.936,0,0,0,0,5.871,2.919,2.919,0,0,0,.8-.108l.317.821a.205.205,0,0,0,.216.144h.5c.121,0,.209-.078.154-.232l-.412-1.072a2.948,2.948,0,0,0-1.572-5.423m6.957,1.925a.185.185,0,0,1,.183.183v3.482a.186.186,0,0,1-.183.177h-.471a.176.176,0,0,1-.176-.167v-.32a1.42,1.42,0,0,1-1.249.592,1.528,1.528,0,0,1-1.615-1.648v-2.118a.186.186,0,0,1,.183-.177h.471a.178.178,0,0,1,.177.177v1.984a.945.945,0,0,0,1,1.066.974.974,0,0,0,1.033-1.056v-1.991a.185.185,0,0,1,.176-.177h.471" transform="translate(-414.612 -92.303)" fill="#fff"/><path d="M591.829,90.2h-.356v.536h.356a.267.267,0,1,0,0-.533h0Zm.02.879h-.376v.736h-.382V89.86h.758a.612.612,0,1,1,0,1.223h0Z" transform="translate(-430.927 -79.925)" fill="#fff"/><path d="M597.532,90.2h-.36v.517h.36a.259.259,0,1,0,0-.517Zm.3,1.615-.383-.781h-.275v.781h-.383V89.86h.765a.59.59,0,0,1,.634.6.525.525,0,0,1-.356.513l.438.843Z" transform="translate(-434.764 -79.925)" fill="#fff"/><path d="M602.71,91.815V89.86H604v.34h-.906v.461h.771V91h-.771v.474H604v.34Z" transform="translate(-438.749 -79.925)" fill="#fff"/><path d="M608.393,91.791a.911.911,0,0,1-.713-.258l.248-.248a.636.636,0,0,0,.471.163c.226,0,.347-.085.347-.242a.218.218,0,0,0-.059-.163.286.286,0,0,0-.173-.069l-.235-.033a.679.679,0,0,1-.379-.163.513.513,0,0,1-.141-.386.6.6,0,0,1,.68-.592.832.832,0,0,1,.631.229l-.242.239a.546.546,0,0,0-.4-.134c-.2,0-.3.111-.3.248a.188.188,0,0,0,.059.141.353.353,0,0,0,.18.078l.232.033a.659.659,0,0,1,.373.15.546.546,0,0,1,.15.415c0,.379-.317.592-.726.592h0Z" transform="translate(-442.094 -79.885)" fill="#fff"/><path d="M613.6,91.815V89.86h1.288v.34h-.905v.461h.771V91h-.771v.474h.905v.34Z" transform="translate(-446.079 -79.925)" fill="#fff"/><path d="M620.267,91.815l-.775-1.2v1.2h-.382V89.86h.34l.775,1.2v-1.2h.382v1.955Z" transform="translate(-449.788 -79.925)" fill="#fff"/><path d="M625.952,90.2v1.615h-.382V90.2h-.51v-.34h1.4v.34Z" transform="translate(-453.792 -79.925)" fill="#fff"/><path d="M630.73,91.815V89.86h1.285v.34h-.906v.461h.771V91h-.771v.474h.906v.34Z" transform="translate(-457.609 -79.925)" fill="#fff"/><path d="M637.188,90.321a.342.342,0,0,0-.284-.121h-.288v1.275h.288a.342.342,0,0,0,.284-.121c.072-.088.082-.229.082-.523s-.01-.422-.082-.507h0Zm.265,1.308a.718.718,0,0,1-.517.186h-.706V89.86h.706a.723.723,0,0,1,.517.186.985.985,0,0,1,.2.781,1.01,1.01,0,0,1-.2.8h0Z" transform="translate(-461.311 -79.925)" fill="#fff"/><path d="M645.348,90.994h-.4v.481h.4a.232.232,0,0,0,.255-.242.229.229,0,0,0-.255-.239Zm-.026-.794h-.373v.451h.373a.227.227,0,1,0,0-.451h0Zm.065,1.615h-.817V89.86h.785a.535.535,0,0,1,.6.549.474.474,0,0,0,.026.84.539.539,0,0,1-.6.562h0Z" transform="translate(-466.924 -79.925)" fill="#fff"/><path d="M650.808,91.014v.8h-.379v-.8l-.588-1.154h.415l.366.788.36-.788h.415l-.589,1.154Z" transform="translate(-470.472 -79.925)" fill="#fff"/></g></g><g transform="translate(0 172.479)"><text transform="translate(61.748 21)" fill="#fff" font-size="22" font-family="Inter" font-weight="600"><tspan x="0" y="0">West Coast</tspan><tspan x="0" y="22">Invitational</tspan></text><g transform="translate(0 0)" clip-path="url(#g)"><path d="M0,2.807S11.094-.985,20.258.246C26.444,1.077,21.5-.841,26.1,4.762c2.387,2.908.132.429,4.116-.034,3.637-.423,7.319,2.779,7.319,2.779s-5.446-.121-7.809,3.413c-3.447,5.155-1.823,10.32-2.29,15.807-.422,4.961,1.074,7.064,8.992,6.813,4.338-.138,11.552-5.34,15.5-4.851,5.356.664,9.373,8.439,9.373,8.439V50.814H0Z" transform="translate(3.138 -1.07) rotate(18)" fill="#043d46"/><path d="M0-370.281s11.346-3.016,20.51-1.785c5.37.721,4.765-.317,11.357,2.626,4.634,2.069,7.583,7.907,7.583,7.907s-15.532-6.658-18.124,8.523c-.468,7.273,7.182,13.715,15.1,13.463,5.108-.591,11.552-5.339,15.5-4.851,5.356.664,9.373,8.439,9.373,8.439v13.686H0Z" transform="translate(0.518 377.294)" fill="#065d6a"/><path d="M0-427.5s1.778-4.339,10.942-3.108c4.28.575,6.258-7.324,13.42-6.828,13.3.922,19.759,16.683,19.759,16.683S29.411-429.7,22.6-423.362c-4.241,3.943-5.868,6.7-5.757,11.871.148,6.815,5.821,12.132,12.088,14.725,5.506,2.277,12.421,2.526,14.523,1.933,4.481-1.265,5.613-1.068,10.184-4.39A53.749,53.749,0,0,0,60.8-405.48l.492,25.985H0Z" transform="translate(-1.437 433.538)" fill="#016286"/><path d="M0-422.112l21.716-7.7,14.257,1.329s-13.86.152-19.788,5.535c-6.993,6.35-9.2,17.386-2.021,26.8,6.39,8.378,17.919,9.231,23.35,8.349s13.335-3.68,15.63-3.887c7.1-.638,8.15,3.887,8.15,3.887V-374.1H0Z" transform="translate(-2.415 428.147)" fill="#078cbd"/><g fill="none"><path d="M26.124,0A26.124,26.124,0,1,1,0,26.124,26.124,26.124,0,0,1,26.124,0Z" stroke="none"/><path d="M 26.12400054931641 2.5 C 22.93368148803711 2.5 19.84011077880859 3.124271392822266 16.92924118041992 4.355461120605469 C 14.11640930175781 5.545188903808594 11.58969879150391 7.248908996582031 9.4193115234375 9.4193115234375 C 7.248908996582031 11.58969879150391 5.545188903808594 14.11640930175781 4.355461120605469 16.92924118041992 C 3.124271392822266 19.84011077880859 2.5 22.93368148803711 2.5 26.12400054931641 C 2.5 29.3143196105957 3.124271392822266 32.40788269042969 4.355461120605469 35.31875991821289 C 5.545188903808594 38.131591796875 7.248908996582031 40.65829086303711 9.4193115234375 42.82868957519531 C 11.58969879150391 44.99908065795898 14.11640930175781 46.70281219482422 16.92924118041992 47.89253234863281 C 19.84011077880859 49.12372970581055 22.93368148803711 49.74800109863281 26.12400054931641 49.74800109863281 C 29.3143196105957 49.74800109863281 32.40788269042969 49.12372970581055 35.31875991821289 47.89253234863281 C 38.131591796875 46.70281219482422 40.65829086303711 44.99908065795898 42.82868957519531 42.82868957519531 C 44.99908065795898 40.65829086303711 46.70281219482422 38.131591796875 47.89253234863281 35.31875991821289 C 49.12372970581055 32.40788269042969 49.74800109863281 29.3143196105957 49.74800109863281 26.12400054931641 C 49.74800109863281 22.93368148803711 49.12372970581055 19.84011077880859 47.89253234863281 16.92924118041992 C 46.70281219482422 14.11640930175781 44.99908065795898 11.58969879150391 42.82868957519531 9.4193115234375 C 40.65829086303711 7.248908996582031 38.131591796875 5.545188903808594 35.31875991821289 4.355461120605469 C 32.40788269042969 3.124271392822266 29.3143196105957 2.5 26.12400054931641 2.5 M 26.12400054931641 0 C 40.5518798828125 0 52.24800109863281 11.69610977172852 52.24800109863281 26.12400054931641 C 52.24800109863281 40.5518798828125 40.5518798828125 52.24800109863281 26.12400054931641 52.24800109863281 C 11.69610977172852 52.24800109863281 0 40.5518798828125 0 26.12400054931641 C 0 11.69610977172852 11.69610977172852 0 26.12400054931641 0 Z" stroke="none" fill="#078cbd"/></g><path d="M0-337.983s3.835-2.536,4.46,0c1.7,6.891-.813,21.542,15.646,30.227s28.031-2.835,33.023-3.034c5.289-.211,8.167,4.831,8.167,4.831v13.686H0Z" transform="translate(-2.415 347.978)" fill="#29b4dd"/></g></g><g transform="translate(0 0)"><g transform="translate(98.149 26.597)"><path d="M1623.993,468.573h-3.36v8.739H1617.7v-8.739h-3.36V466.05h9.653v2.523Z" transform="translate(-1591.75 -449.804)" fill="#fff"/><path d="M1705.19,466.05h8.976V468.4h-6.042v1.972h5.521v2.271h-5.521v2.145h6.2v2.523h-9.135V466.05Z" transform="translate(-1672.602 -449.804)" fill="#fff"/><path d="M1799.443,468.15a2.041,2.041,0,0,0-2.271-1.735c-1.893,0-2.619,1.672-2.619,3.343s.726,3.344,2.619,3.344a2.091,2.091,0,0,0,2.271-2.082h2.935c-.158,2.9-2.286,4.607-5.143,4.607a5.874,5.874,0,0,1,0-11.736c2.43,0,5.064,1.546,5.143,4.26Z" transform="translate(-1749.521 -447.882)" fill="#fff"/><path d="M1894.66,466.05h2.933v4.1h3.865v-4.1h2.935v11.262h-2.935v-4.637h-3.865v4.637h-2.933V466.05Z" transform="translate(-1841.222 -449.804)" fill="#fff"/><path d="M1416.884,599.189a2.042,2.042,0,0,0-2.271-1.735c-1.893,0-2.619,1.673-2.619,3.344s.726,3.344,2.619,3.344a2.091,2.091,0,0,0,2.271-2.083h2.935c-.159,2.9-2.288,4.607-5.144,4.607a5.873,5.873,0,0,1,0-11.735c2.429,0,5.063,1.546,5.144,4.259Z" transform="translate(-1409.06 -564.501)" fill="#fff"/><path d="M1512.1,597.08h2.935v4.1h3.864v-4.1h2.935v11.263H1518.9v-4.637h-3.864v4.637H1512.1V597.08Z" transform="translate(-1500.761 -566.415)" fill="#fff"/><path d="M1603.913,604.146h2.556l-1.247-3.943h-.032l-1.278,3.943Zm-.189-7.066h2.981l4.212,11.263h-3.06l-.695-2.018h-3.927l-.711,2.018h-3.013l4.211-11.263h0Z" transform="translate(-1578.552 -566.415)" fill="#fff"/><path d="M1702.28,597.08h2.934v8.739h5.254v2.524h-8.187V597.08Z" transform="translate(-1670.012 -566.415)" fill="#fff"/><path d="M1781.25,597.08h2.933v8.739h5.254v2.524h-8.186V597.08Z" transform="translate(-1740.292 -566.415)" fill="#fff"/><path d="M1860.21,597.08h8.976v2.351h-6.043V601.4h5.521v2.271h-5.521v2.145h6.2v2.524h-9.134V597.08Z" transform="translate(-1810.563 -566.415)" fill="#fff"/><path d="M1949.49,597.08h3.013l3.912,6.941h.032V597.08h2.76v11.263h-3.013l-3.912-7.02h-.031v7.02h-2.761V597.08Z" transform="translate(-1890.018 -566.415)" fill="#fff"/><path d="M2054.322,606.439h-1.894l-.173-1.23a3.841,3.841,0,0,1-3.14,1.467,5.873,5.873,0,0,1,0-11.735c2.335,0,4.827,1.246,5.1,4.07h-2.934c-.1-.962-1.041-1.546-2.224-1.546-1.894,0-2.618,1.673-2.618,3.344s.725,3.344,2.618,3.344c1.452,0,2.43-.679,2.587-1.7h-2.051v-2.177h4.733v6.168Z" transform="translate(-1973.683 -564.51)" fill="#fff"/><path d="M2150.28,597.08h8.975v2.351h-6.042V601.4h5.522v2.271h-5.522v2.145h6.2v2.524h-9.133V597.08Z" transform="translate(-2068.712 -566.415)" fill="#fff"/><path d="M1586.851,320.74h9.008l-.847,3.469h-4.318l-.427,1.823h4.5l-.784,3.214h-4.446l-1.068,4.567h-4.654l3.032-13.073Z" transform="translate(-1564.588 -320.485)" fill="#fff"/><path d="M1679.85,320.74h4.655l-3.032,13.073h-4.654l3.031-13.073Z" transform="translate(-1647.354 -320.485)" fill="#fff"/><path d="M1736.825,324.908a2.265,2.265,0,0,0,2.541-2.136c0-.667-.491-1-1.452-1a3.205,3.205,0,0,0-.726.078l-.7,3.019a1.78,1.78,0,0,0,.341.04h0Zm-3.437-6.155.3-.04c1.494-.176,3.352-.294,4.376-.294a10.8,10.8,0,0,1,4.035.607,3.24,3.24,0,0,1,2.049,3.077,4.866,4.866,0,0,1-1.174,3.214,4.576,4.576,0,0,1-2.5,1.509l-.3.1a2.8,2.8,0,0,1,.234.2,30.814,30.814,0,0,1,2.37,4.625h-5.124c-.661-1.862-.854-2.352-1.729-4.469l-1.025,4.469h-4.526l3.01-12.994h0Z" transform="translate(-1695.02 -318.42)" fill="#fff"/><path d="M1946.715,320.74h11.292l-.788,3.785h-3.352l-2.221,9.289h-4.654l2.221-9.289h-3.634l1.136-3.785Z" transform="translate(-1886.538 -320.485)" fill="#fff"/><path d="M2011.321,419.407c.1,0,.159-.048.159-.141s-.053-.136-.154-.136a.18.18,0,0,0-.048,0v.267a.151.151,0,0,0,.044,0h0Zm-.408-.544c.057,0,.066-.009.18-.018s.163-.013.21-.013c.373,0,.557.145.557.421a.311.311,0,0,1-.219.325l-.018,0a.052.052,0,0,1,.022.022,3.444,3.444,0,0,1,.28.413h-.426c-.088-.163-.115-.207-.224-.391v.391h-.365v-1.154h0Zm.439,1.575a.994.994,0,1,0-.992-1,.992.992,0,0,0,.992,1Zm0-2.128a1.135,1.135,0,1,1,0,2.269,1.135,1.135,0,0,1,0-2.269Z" transform="translate(-1944.065 -407.318)" fill="#fff"/><path d="M1847.24,331.416a14.642,14.642,0,0,0,4.076.606,7.145,7.145,0,0,0,4.4-1.274,4.862,4.862,0,0,0,2.178-3.7,2.9,2.9,0,0,0-1.068-2.255,9.884,9.884,0,0,0-2.221-1.293l-.918-.431c-.3-.157-.448-.314-.448-.49,0-.47.6-.823,1.409-.823a9.261,9.261,0,0,1,2.713.628l.954-3.539a11.555,11.555,0,0,0-3.047-.421c-3.8,0-6.725,2.078-6.725,4.763,0,1.411.94,2.411,3.288,3.508,1.11.509,1.3.647,1.3,1,0,.529-.577.863-1.517.863a10.389,10.389,0,0,1-3.352-.784h0l-1.021,3.647Z" transform="translate(-1799.02 -318.42)" fill="#fff"/></g><g transform="translate(0)"><path d="M263.462,153.565h72.525a6.814,6.814,0,0,0,5.911-10.2L305.634,80.154a6.812,6.812,0,0,0-11.819,0l-36.263,63.208a6.813,6.813,0,0,0,5.911,10.2Z" transform="translate(-256.652 -76.73)" fill="#fff"/><path d="M324.356,104.5a3.716,3.716,0,0,1,3.26,1.888L363.877,169.6a3.758,3.758,0,0,1-3.26,5.628H288.092a3.758,3.758,0,0,1-3.26-5.628l36.262-63.207a3.719,3.719,0,0,1,3.26-1.888Zm36.262,68.049a1.084,1.084,0,0,0,.94-1.623L325.3,107.718a1.085,1.085,0,0,0-1.882,0l-36.262,63.208a1.084,1.084,0,0,0,.94,1.623h72.525Z" transform="translate(-281.283 -101.444)"/><g transform="translate(5.624 5.642)" clip-path="url(#h)"><path d="M278.811,171.848c.1.521.408,1.732,1.024,1.732h79.144c.616,0,.92-1.213,1.024-1.733a9.374,9.374,0,0,0,0-3.47L347.4,99.986,347.2,99H291.612l-.193.986-12.611,68.391A9.381,9.381,0,0,0,278.811,171.848Z" transform="translate(-281.959 -102.286)" fill="#9edae9"/><path d="M447.146,254.222c1.883,1.567,5.884,2.176,8.9,1.356a33.993,33.993,0,0,0,5.014-2.248,9.031,9.031,0,0,1,5.934-.642c1.387.449,2.045,1.373,3.2,2a8.02,8.02,0,0,0,3.931.805,7.456,7.456,0,0,1,1.4,0,3.651,3.651,0,0,1,1.048.363c5.629,2.713,8.188,7.121,7.677,11.3a5.175,5.175,0,0,1-1.24,2.958c-1.112,1.241,8.064,3.593,6.151,4.468-2.206,1.01-.2,10.69-3,10.942-2.3.207-19.55,19.222-21.763,18.812-4.339-.8-11.253-19.225-15.418-20.285-3.237-.823-7.459-5.219-10.659-6.088-.512-.139,2.091-8.785,1.766-9.049a1.208,1.208,0,0,1-.416-.837c-.321-2.262,1.107-4.472,2.511-6.6a36.774,36.774,0,0,1,3.134-4.269c.761-.858,1.643-1.728,1.714-2.688" transform="translate(-423.963 -238.779)" fill="#0083ae"/><path d="M590.558,85.3c-1.191-.977-2.638-2.016-4.129-1.632a4.489,4.489,0,0,0-1.842,1.172,12.335,12.335,0,0,1-3.013,2.378,3.151,3.151,0,0,1-3.58-.42c-.436-.473-.7-1.163-1.306-1.384-.736-.269-1.476.308-2.187.639-2.127.992-4.58-.222-6.606-1.406a1.475,1.475,0,0,1-.755-.74,1.312,1.312,0,0,1,.11-.854,10.868,10.868,0,0,1,2.366-3.267c2.892-3.072,6.349-6.234,10.568-6.306a4.38,4.38,0,0,1,3.535,1.346,5.831,5.831,0,0,1,.852,1.744q1.157,3.247,2.313,6.493" transform="translate(-538.589 -79.583)" fill="#f8e448"/><path d="M271.943,234.434l4.32,9.122a3.474,3.474,0,0,0,1.082,1.505A1.2,1.2,0,0,0,279,244.83c.164-.287.167-.669.413-.888a.963.963,0,0,1,1.091.047c1.593.918,1.979,2.984,2.7,4.676a7,7,0,0,0,3.46,3.771c1.6.7-.186,7.443,1.023,6.181.942-.983,5.092-9.356,5.362-10.691q.309-1.531.62-3.061a4.9,4.9,0,0,1,.553-1.666,1.664,1.664,0,0,1,1.451-.847c.339.025.655.19.994.212,1.139.073,1.76-1.362,2.815-1.8a6.016,6.016,0,0,1,1.508,2.36c1.339,3.47,13.394,2.157,12.692,5.809-.193,1,4.92,7.132,4.5,8.065-.446,1-.033,9.4-.713,10.254-1.263,1.587,14.715,21.709,13.277,23.139s-32.831.284-34.838.656c-1.338.248-53.859.927-54.552-1.377-1.941-6.459,25.649-51.079,26.4-57.781a1.02,1.02,0,0,1,.3-.732.831.831,0,0,1,.591-.117c1.346.141,2.191,1.483,2.8,2.691" transform="translate(-248.7 -219.754)"/></g><g transform="translate(20.151 34.843)"><path d="M484.99,425.5c.15-2.568,3.77-1.665,3.715.565a1.533,1.533,0,0,1-2.036,1.428,2.053,2.053,0,0,1-1.679-1.994Zm2.252-.922c-1.234-.023-.277,2.154.448,2.343C488.6,427.158,488.416,424.584,487.242,424.577Z" transform="translate(-480.014 -420.575)" fill="#0083ae"/><path d="M823.774,630.585c-.309-.424-.549-1.066-.073-1.486a1,1,0,0,1,1.239,0c.912.721-.273,2.335-1.168,1.514h0v-.026h0Z" transform="translate(-781.212 -602.965)" fill="#0083ae"/><path d="M889.257,703.452c-.254-.348-.451-.876-.059-1.22a.823.823,0,0,1,1.018,0c.75.592-.224,1.918-.958,1.243h0v-.021h0Z" transform="translate(-839.544 -668.083)" fill="#0083ae"/><path d="M529.733,394.258a.83.83,0,1,0,1.642.028C531.315,393.279,529.741,393.184,529.733,394.258Zm-.563-.881c.018.053.041.064.072.032C529.225,393.354,529.2,393.344,529.17,393.377Z" transform="translate(-519.332 -393.358)" fill="#0083ae"/><path d="M832.36,668.408a1.2,1.2,0,0,1-1.208-1.292c.046-.824.716-1.124,1.452-1.072a1.124,1.124,0,0,1,1.164,1.164,1.329,1.329,0,0,1-1.406,1.2Zm-.14-1.208c.237.289,1.116.819.974.022C833.1,666.674,832.218,666.555,832.221,667.2Z" transform="translate(-788.081 -636.032)" fill="#0083ae"/><path d="M439.966,612.5a.915.915,0,0,1,1.33-.235.9.9,0,0,1,.081,1.375.858.858,0,0,1-1.23.26,1.014,1.014,0,0,1-.181-1.4Zm.831.414c-.284.031-.989.373-.42.614C440.768,613.7,441.21,613.185,440.8,612.918Z" transform="translate(-439.772 -588.009)" fill="#0083ae"/><path d="M496.974,476.515v-.042l0,0v.047l0,0Z" transform="translate(-490.676 -467.324)" fill="#0083ae"/></g><g transform="translate(21.551 46.254)"><path d="M452.765,505.78a.276.276,0,0,1-.275-.275v-6.8a.276.276,0,0,1,.275-.275h1.376a.275.275,0,0,1,.275.275v6.8a.275.275,0,0,1-.275.275Z" transform="translate(-452.49 -498.278)" fill="#fff"/><path d="M481.515,507.724a.276.276,0,0,1-.275-.275V498.7a.276.276,0,0,1,.275-.275h1.638a.33.33,0,0,1,.344.248l1.885,5.64c.014.068.124.068.124-.028v-2.992a.276.276,0,0,1,.275-.275h1.376a.276.276,0,0,1,.275.275v7.38a.276.276,0,0,1-.275.275h-1.623a.356.356,0,0,1-.372-.234l-1.871-6.135c-.014-.069-.124-.069-.124.027v4.846a.275.275,0,0,1-.275.275h-1.376Z" transform="translate(-478.076 -498.269)" fill="#fff"/><path d="M525.608,508.059a.276.276,0,0,1-.275-.275v-7.29c0-.1-.041-.138-.138-.138h-3.951a.276.276,0,0,1-.275-.275v-1.376a.276.276,0,0,1,.275-.275h7.87a.275.275,0,0,1,.275.275v1.376a.276.276,0,0,1-.275.275H527.4c-.1,0-.138.042-.138.138v7.29a.275.275,0,0,1-.275.275h-1.376Z" transform="translate(-513.434 -498.278)" fill="#fff"/><path d="M598.991,506.983a3.323,3.323,0,0,1-1.843-.5,2.993,2.993,0,0,1-1.142-1.335,12.961,12.961,0,0,1,0-6.273,3.35,3.35,0,0,1,5.971,0,12.963,12.963,0,0,1,0,6.273,2.994,2.994,0,0,1-1.142,1.335A3.326,3.326,0,0,1,598.991,506.983Zm0-1.94a1.2,1.2,0,0,0,1.21-.66,14.627,14.627,0,0,0,0-4.732,1.44,1.44,0,0,0-2.421,0,14.627,14.627,0,0,0,0,4.732A1.2,1.2,0,0,0,598.991,505.042Z" transform="translate(-579.869 -497.05)" fill="#fff"/><path d="M674.563,511.9a.276.276,0,0,1-.275-.275V500.483c0-.1-.041-.138-.138-.138h-2a.276.276,0,0,1-.275-.275V498.7a.276.276,0,0,1,.275-.275h7.814a.275.275,0,0,1,.275.275v1.376a.276.276,0,0,1-.275.275h-3.618c-.1,0-.138.042-.138.138v11.144a.275.275,0,0,1-.275.275Z" transform="translate(-647.737 -498.269)" fill="#fff"/><path d="M732.155,508.05a.276.276,0,0,1-.275-.275v-6.359a.276.276,0,0,1,.275-.275h1.375a.275.275,0,0,1,.275.275v1.328c0,.1.042.138.138.138h2.063c.1,0,.138-.041.138-.138V498.7a.276.276,0,0,1,.275-.275h1.376a.276.276,0,0,1,.275.275v10.249a.276.276,0,0,1-.275.275h-1.376a.276.276,0,0,1-.275-.275v-4c0-.1-.042-.138-.138-.138h-2.063c-.1,0-.138.041-.138.138v2.83c0,.152-.178.275-.344.275h-1.307Z" transform="translate(-701.134 -498.269)" fill="#fff"/><path d="M799.665,508.05a.276.276,0,0,1-.275-.275V498.7a.276.276,0,0,1,.275-.275h4.994a.276.276,0,0,1,.275.275v1.376a.277.277,0,0,1-.275.275h-3.206c-.1,0-.138.042-.138.138v1.651c0,.1.042.138.138.138h2.3a.275.275,0,0,1,.275.275v1.376a.277.277,0,0,1-.275.275h-2.3c-.1,0-.138.041-.138.138v1.651c0,.1.042.138.138.138h1.2a.276.276,0,0,1,.275.275v1.376a.276.276,0,0,1-.275.275h-2.99Z" transform="translate(-761.215 -498.269)" fill="#fff"/><path d="M537.765,613.07a.276.276,0,0,1-.275-.275v-9.08a.276.276,0,0,1,.275-.275h2.7a3.105,3.105,0,0,1,2.986,1.83,11.764,11.764,0,0,1,0,5.971,3.1,3.1,0,0,1-2.986,1.83h-2.7Zm2.7-1.94a1.2,1.2,0,0,0,1.211-.66,12.838,12.838,0,0,0,0-4.43,1.2,1.2,0,0,0-1.211-.66h-.908c-.1,0-.138.041-.138.138v5.475c0,.1.042.138.138.138h.908Z" transform="translate(-528.136 -591.732)" fill="#fff"/><path d="M603.525,613.07a.276.276,0,0,1-.275-.275v-9.08a.276.276,0,0,1,.275-.275h4.994a.276.276,0,0,1,.275.275v1.376a.277.277,0,0,1-.275.275h-3.206c-.1,0-.138.042-.138.138v1.651c0,.1.042.138.138.138h3.1a.275.275,0,0,1,.275.275v1.375a.277.277,0,0,1-.275.275h-3.1c-.1,0-.138.041-.138.137v1.651c0,.1.042.138.138.138h3.261a.276.276,0,0,1,.275.275v1.376a.276.276,0,0,1-.275.275h-5.049Z" transform="translate(-586.659 -591.732)" fill="#fff"/><path d="M661.905,613.07a.276.276,0,0,1-.275-.275v-9.08a.276.276,0,0,1,.275-.275h2.387a.276.276,0,0,1,.275.275v1.376a.277.277,0,0,1-.275.275h-.6c-.1,0-.138.042-.138.138v1.651c0,.1.042.138.138.138h3.1a.275.275,0,0,1,.275.275v1.375a.277.277,0,0,1-.275.275h-3.1c-.1,0-.138.041-.138.137v1.651c0,.1.042.138.138.138h3.261a.276.276,0,0,1,.275.275v1.376a.276.276,0,0,1-.275.275h-5.049Z" transform="translate(-638.615 -591.732)" fill="#fff"/><path d="M720.285,613.07a.276.276,0,0,1-.275-.275v-9.08a.276.276,0,0,1,.275-.275h3.026a2.89,2.89,0,1,1,0,5.777h-1.238c-.1,0-.138.041-.138.137v3.439a.275.275,0,0,1-.275.275h-1.376Zm2.958-5.777a.963.963,0,0,0,0-1.926h-1.17c-.1,0-.138.042-.138.138v1.651c0,.1.042.138.138.138Z" transform="translate(-690.571 -591.732)" fill="#fff"/><g transform="translate(31.882 20.015)"><path d="M742.464,680.258a.418.418,0,0,1-.188-.152.4.4,0,0,1-.066-.228v-.028a.026.026,0,0,1,.008-.021.027.027,0,0,1,.021-.008h.3a.026.026,0,0,1,.021.008.028.028,0,0,1,.008.021v.012a.116.116,0,0,0,.057.1.251.251,0,0,0,.152.042.146.146,0,0,0,.1-.03.089.089,0,0,0,.031-.066.069.069,0,0,0-.039-.064.739.739,0,0,0-.141-.052l-.056-.015a1.031,1.031,0,0,1-.32-.154.327.327,0,0,1-.129-.279.365.365,0,0,1,.066-.216.422.422,0,0,1,.181-.144.685.685,0,0,1,.53.005.457.457,0,0,1,.193.158.4.4,0,0,1,.07.233v.018a.026.026,0,0,1-.008.021.032.032,0,0,1-.021.008h-.3a.026.026,0,0,1-.021-.008.027.027,0,0,1-.008-.021v0a.143.143,0,0,0-.052-.106.2.2,0,0,0-.141-.047.172.172,0,0,0-.1.025.078.078,0,0,0-.035.069.075.075,0,0,0,.026.058.255.255,0,0,0,.08.046c.036.014.091.034.166.057.01,0,.056.018.136.042a.425.425,0,0,1,.2.129.335.335,0,0,1,.081.227.373.373,0,0,1-.066.223.42.42,0,0,1-.184.144.7.7,0,0,1-.274.051.722.722,0,0,1-.284-.053Z" transform="translate(-742.21 -678.93)" fill="#fff"/><path d="M753.476,679.07h.3a.026.026,0,0,1,.021.008.027.027,0,0,1,.008.021v1.293a.026.026,0,0,1-.008.021.033.033,0,0,1-.021.008h-.3a.026.026,0,0,1-.021-.008.028.028,0,0,1-.008-.021v-.7s0-.008,0-.009a.007.007,0,0,0-.008,0l-.131.215a.039.039,0,0,1-.035.02h-.146a.039.039,0,0,1-.035-.02l-.131-.215s-.005-.006-.008,0,0,0,0,.009v.7a.026.026,0,0,1-.008.021.032.032,0,0,1-.021.008h-.3a.026.026,0,0,1-.021-.008.028.028,0,0,1-.008-.021V679.1a.026.026,0,0,1,.008-.021.027.027,0,0,1,.021-.008h.3a.038.038,0,0,1,.035.02l.243.392c0,.008.008.008.012,0l.243-.392a.038.038,0,0,1,.035-.02Z" transform="translate(-751.439 -679.055)" fill="#fff"/></g></g><g transform="translate(14.185 84.962)"><g transform="translate(0 4.724)"><path d="M386.435,893.324H386v.861h-.446V891.9h.886a.713.713,0,1,1,0,1.424Zm-.022-1.027H386v.626h.417a.3.3,0,0,0,.33-.311A.3.3,0,0,0,386.413,892.3Z" transform="translate(-385.55 -891.88)" fill="#fff"/><path d="M406.543,894.174l-.446-.911h-.321v.911h-.446V891.89h.9a.691.691,0,0,1,.742.7.615.615,0,0,1-.417.6l.511.985h-.516Zm-.347-1.886h-.42v.6h.42a.3.3,0,1,0,0-.6Z" transform="translate(-403.153 -891.871)" fill="#fff"/><path d="M425.86,894.174V891.89h1.505v.4h-1.059v.536h.9v.4h-.9v.555h1.059v.4Z" transform="translate(-421.424 -891.871)" fill="#fff"/><path d="M443.944,894.043a1.072,1.072,0,0,1-.834-.3l.288-.288a.748.748,0,0,0,.552.193c.263,0,.4-.1.4-.283a.254.254,0,0,0-.07-.193.341.341,0,0,0-.2-.08l-.276-.039a.773.773,0,0,1-.442-.189.6.6,0,0,1-.164-.449.7.7,0,0,1,.8-.693.98.98,0,0,1,.738.266l-.283.28a.638.638,0,0,0-.469-.157c-.238,0-.353.131-.353.288a.225.225,0,0,0,.067.164.4.4,0,0,0,.211.09l.27.038a.761.761,0,0,1,.437.176.639.639,0,0,1,.176.484c0,.442-.369.693-.847.693Z" transform="translate(-436.776 -891.72)" fill="#fff"/><path d="M463.68,894.174V891.89h1.505v.4h-1.059v.536h.9v.4h-.9v.555h1.059v.4Z" transform="translate(-455.082 -891.871)" fill="#fff"/><path d="M484.14,894.174l-.9-1.4v1.4h-.446V891.89h.4l.9,1.4v-1.4h.446v2.285Z" transform="translate(-472.089 -891.871)" fill="#fff"/><path d="M504.492,892.288v1.887h-.446v-1.887h-.6v-.4h1.64v.4h-.6Z" transform="translate(-490.476 -891.871)" fill="#fff"/><path d="M523.11,894.174V891.89h1.505v.4h-1.059v.536h.9v.4h-.9v.555h1.059v.4Z" transform="translate(-507.972 -891.871)" fill="#fff"/><path d="M543.647,893.957a.831.831,0,0,1-.6.218h-.824V891.89h.824a.831.831,0,0,1,.6.218,1.149,1.149,0,0,1,.231.914,1.192,1.192,0,0,1-.231.933Zm-.311-1.527a.4.4,0,0,0-.333-.141h-.337v1.489H543a.4.4,0,0,0,.333-.141c.084-.1.1-.266.1-.613S543.419,892.533,543.336,892.429Z" transform="translate(-524.979 -891.871)" fill="#fff"/><path d="M572.086,894.174h-.956V891.89h.918a.625.625,0,0,1,.707.642.557.557,0,0,0,.032.986.632.632,0,0,1-.7.658Zm-.074-1.886h-.436v.526h.436a.265.265,0,1,0,0-.526Zm.029.927h-.465v.561h.465a.282.282,0,1,0,0-.562Z" transform="translate(-550.708 -891.871)" fill="#fff"/><path d="M590.589,893.238v.936h-.442v-.936l-.687-1.348h.484l.427.921.42-.921h.484Z" transform="translate(-567.021 -891.871)" fill="#fff"/></g><g transform="translate(30.584)"><path d="M667.588,848.851c.113-.024.229-.044.344-.061l.544,3.1a2.117,2.117,0,0,0-.346.06Zm-.14,3.419a2.025,2.025,0,0,1,.365-.209l-1.562-2.725c-.124.066-.245.136-.363.212Zm-.886,1.717a2.074,2.074,0,0,1,.029-.343h-3.11c-.007.109-.011.218-.011.328s0,.206.01.307h3.1a2.111,2.111,0,0,1-.021-.292m4.214,0a2.107,2.107,0,0,1-4.184.357l-2.922,1.072a5.313,5.313,0,0,0,.238.665l2.9-1.064-2.37,2.005a5.222,5.222,0,0,0,.494.6l2.216-1.873-1.446,2.532a5.149,5.149,0,0,0,.727.426l1.358-2.379-.474,2.707a5.14,5.14,0,0,0,.9.158l.442-2.53.443,2.531a5.083,5.083,0,0,0,.939-.166l-.412-2.348,1.185,2.068a5.173,5.173,0,0,0,.916-.538l-1.088-1.895,1.663,1.4a5.241,5.241,0,0,0,.708-.865l-1.487-1.255,1.819.667a5.277,5.277,0,0,0,.387-1.107l-1.6-.584h1.7a5.323,5.323,0,0,0,.034-.594,5.212,5.212,0,0,0-.046-.686h-3.166a2.106,2.106,0,0,1,.12.7m-4.155-.478a2.089,2.089,0,0,1,.2-.528l-2.926-1.073a5.19,5.19,0,0,0-.193.531l2.921,1.07Zm5.97-2.98-2.383,2.012a2.144,2.144,0,0,1,.164.2l2.381-2.011c-.053-.067-.107-.133-.163-.2m-1.18-1.011c-.084-.053-.168-.1-.255-.151l-1.562,2.72a2.154,2.154,0,0,1,.258.149l1.559-2.718Zm-4.166,2.918-2.389-2.019c-.111.121-.216.247-.315.377l2.384,2.015a2.089,2.089,0,0,1,.321-.374m1.639-.548a2.075,2.075,0,0,1,.311.055l.542-3.1c-.1-.022-.207-.04-.311-.055l-.544,3.1Z" transform="translate(-663.47 -848.79)" fill="#fff"/><path d="M779.891,876.958V871.58h1.96a2.274,2.274,0,0,1,1.546.485,1.7,1.7,0,0,1,.556,1.348,1.583,1.583,0,0,1-.224.831,1.958,1.958,0,0,1-.57.612l1.316,2.1h-1.564l-.941-1.727h-.722v1.727H779.89Zm1.769-4.338h-.41v1.571h.4q.928,0,.927-.792c0-.528-.3-.778-.913-.778Z" transform="translate(-767.078 -869.072)" fill="#fff"/><path d="M819.678,876.958v-4.225H818.03V871.58h4.734v1.153h-1.648v4.225h-1.436Z" transform="translate(-801.021 -869.072)" fill="#fff"/><path d="M861.31,876.949l1.868-2.8-1.741-2.576h1.677l.949,1.656L865,871.57h1.628l-1.762,2.64,1.861,2.739h-1.685l-1.083-1.826-1.026,1.826Z" transform="translate(-839.539 -869.063)" fill="#fff"/></g></g></g></g></g></g></g></g><g transform="translate(610 697.265)" clip-path="url(#i)"><g transform="translate(-135.817 -117.583)"><rect width="705" height="397" transform="translate(136.123 117.317)" fill="url(#j)"/><circle cx="87.061" cy="87.061" r="87.061" transform="translate(690.51 263.419)" fill="url(#k)"/><path d="M0,19.821S108.114-8.916,195.434,2.814c58.941,7.917,107.8,18.181,151.624,71.574,22.745,27.711,5.933-70.7,47.036-7.4s20.653,149.664,20.653,149.664-46.792-65.813-105.824-68.378-43.066,47.2-47.516,99.48c-4.025,47.276,10.237,67.313,85.677,64.915,41.334-1.314,110.073-50.878,147.656-46.22,51.038,6.326,89.31,80.412,89.31,80.412v130.41H0Z" transform="matrix(0.951, 0.309, -0.309, 0.951, 147.483, 12.209)" fill="#043d46"/><path d="M0-352.541s108.114-28.736,195.434-17.007c51.17,6.873,143.493,3.189,185.651,57.541s48.6,194.724,48.6,194.724S224.138-261.047,214.867-152.139c-4.025,47.276,55.827,87.576,131.268,85.178,41.334-1.314,62.25-15.546,159.274-4.793S735.18-16.685,735.18-16.685v130.41L0,104.9Z" transform="translate(124.654 435.187)" fill="#065d6a"/><path d="M0-157.911s217.632-56.27,304.952-44.541c40.779,5.477,75.519,19.582,127.386,64.184S488.2,36.34,488.2,36.34s-62.37-75.672-135.071-96.049C259.565-85.931,141.768-92.921,162.2,20.567c7.684,42.677,53.734,89.694,113.458,114.4,52.46,21.7,118.358,24.069,138.385,18.416,42.7-12.054,61.132-18.416,116.878-18.416s32.128,2.812,106.1,18.416,169.956,20.587,169.956,20.587L782.294,378.342,0,299.535Z" transform="translate(106.024 231.242)" fill="#016286"/><path d="M0-356.476l206.926-73.331,135.846,12.665S210.709-415.7,154.222-364.4c-66.631,60.508-87.706,165.667-19.26,255.409C195.848-29.161,305.7-21.032,357.456-29.441S424.815-68.689,534.3-65.425s261.1,49.04,261.1,49.04v130.41L0,100.97Z" transform="translate(96.709 429.807)" fill="#078cbd"/><path d="M0-328.37s36.538-24.163,42.5,0c16.193,65.665-7.738,205.262,149.08,288.02S364.593-55.514,503.919-52.972,748.883-30.185,748.883-30.185v130.41L0,107.182Z" transform="translate(96.709 439.43)" fill="#29b4dd"/><text transform="translate(121.123 340.726)" fill="#fff" font-size="109" font-family="Montserrat" font-weight="800" font-style="italic"><tspan x="0" y="0">THE</tspan><tspan x="0" y="88">TIDE</tspan><tspan x="0" y="176">IS COMING</tspan></text></g></g></g><g transform="translate(-2078 994)"><text transform="translate(2374 -191)" fill="#fff" font-size="96" font-family="Inter" font-weight="600"><tspan x="0" y="0">West Coast</tspan><tspan x="0" y="96">Invitational</tspan></text><g transform="translate(2098 -305)" clip-path="url(#a)"><path d="M0,13.752S54.357-4.827,99.26,1.2c30.308,4.071,6.085-5.327,28.621,22.128,11.7,14.249.647,2.1,20.167-.166,17.822-2.071,35.859,13.619,35.859,13.619s-26.685-.595-38.264,16.722c-16.888,25.256-8.934,50.567-11.221,77.448-2.07,24.31,5.264,34.613,44.056,33.381,21.254-.676,56.6-26.162,75.927-23.767,26.244,3.255,45.924,41.349,45.924,41.349v67.058H0Z" transform="translate(15.376 -5.244) rotate(18)" fill="#043d46"/><path d="M0-362.169s55.592-14.777,100.5-8.744c26.312,3.534,23.347-1.555,55.645,12.865,22.705,10.137,37.156,38.742,37.156,38.742s-76.1-32.621-88.8,41.758c-2.292,35.634,35.192,67.2,73.984,65.964,25.029-2.9,56.6-26.162,75.927-23.767C280.647-232.1,300.327-194,300.327-194v67.057H0Z" transform="translate(2.537 396.53)" fill="#065d6a"/><path d="M0-388.668S8.711-409.93,53.612-403.9c20.969,2.817,30.661-35.885,65.753-33.453,65.188,4.517,96.816,81.744,96.816,81.744s-72.074-43.809-105.457-12.771c-20.779,19.32-28.754,32.852-28.206,58.162.723,33.391,28.519,59.445,59.23,72.148,26.976,11.159,60.861,12.377,71.159,9.47,21.956-6.2,27.5-5.234,49.9-21.509a263.35,263.35,0,0,0,35.112-30.655l2.413,127.319H0Z" transform="translate(-7.043 418.239)" fill="#016286"/><path d="M0-392.1l106.4-37.708,69.854,6.51s-67.91.743-96.955,27.12C45.04-365.064,34.2-310.99,69.4-264.843c31.309,41.05,87.8,45.23,114.409,40.906s65.34-18.033,76.584-19.043c34.785-3.124,39.935,19.043,39.935,19.043v67.061H0Z" transform="translate(-11.833 421.671)" fill="#078cbd"/><g transform="translate(0 0)" fill="none"><path d="M128,0A128,128,0,1,1,0,128,128,128,0,0,1,128,0Z" stroke="none"/><path d="M 128 10 C 62.93458557128906 10 10 62.93458557128906 10 128 C 10 193.0654144287109 62.93458557128906 246 128 246 C 193.0654144287109 246 246 193.0654144287109 246 128 C 246 62.93458557128906 193.0654144287109 10 128 10 M 128 0 C 198.6924133300781 0 256 57.30758666992188 256 128 C 256 198.6924133300781 198.6924133300781 256 128 256 C 57.30758666992188 256 0 198.6924133300781 0 128 C 0 57.30758666992188 57.30758666992188 0 128 0 Z" stroke="none" fill="#078cbd"/></g><path d="M0-333.588s18.788-12.425,21.853,0c8.327,33.766-3.981,105.549,76.659,148.1s137.346-13.89,161.8-14.865c25.913-1.033,40.014,23.669,40.014,23.669v67.059H0Z" transform="translate(-11.833 382.559)" fill="#29b4dd"/></g></g></g></svg>