<svg xmlns="http://www.w3.org/2000/svg" xmlns:xlink="http://www.w3.org/1999/xlink" width="809" height="256" viewBox="0 0 809 256"><defs><clipPath id="a"><path d="M128,0A128,128,0,1,1,0,128,128,128,0,0,1,128,0Z" transform="translate(0 0)" fill="#fff"/></clipPath></defs><g transform="translate(-2098 305)"><text transform="translate(2374 -191)" font-size="96" font-family="Inter" font-weight="600"><tspan x="0" y="0">West Coast</tspan><tspan x="0" y="96">Invitational</tspan></text><g transform="translate(2098 -305)" clip-path="url(#a)"><path d="M0,13.752S54.357-4.827,99.26,1.2c30.308,4.071,6.085-5.327,28.621,22.128,11.7,14.249.647,2.1,20.167-.166,17.822-2.071,35.859,13.619,35.859,13.619s-26.685-.595-38.264,16.722c-16.888,25.256-8.934,50.567-11.221,77.448-2.07,24.31,5.264,34.613,44.056,33.381,21.254-.676,56.6-26.162,75.927-23.767,26.244,3.255,45.924,41.349,45.924,41.349v67.058H0Z" transform="translate(15.376 -5.244) rotate(18)" fill="#043d46"/><path d="M0-362.169s55.592-14.777,100.5-8.744c26.312,3.534,23.347-1.555,55.645,12.865,22.705,10.137,37.156,38.742,37.156,38.742s-76.1-32.621-88.8,41.758c-2.292,35.634,35.192,67.2,73.984,65.964,25.029-2.9,56.6-26.162,75.927-23.767C280.647-232.1,300.327-194,300.327-194v67.057H0Z" transform="translate(2.537 396.53)" fill="#065d6a"/><path d="M0-388.668S8.711-409.93,53.612-403.9c20.969,2.817,30.661-35.885,65.753-33.453,65.188,4.517,96.816,81.744,96.816,81.744s-72.074-43.809-105.457-12.771c-20.779,19.32-28.754,32.852-28.206,58.162.723,33.391,28.519,59.445,59.23,72.148,26.976,11.159,60.861,12.377,71.159,9.47,21.956-6.2,27.5-5.234,49.9-21.509a263.35,263.35,0,0,0,35.112-30.655l2.413,127.319H0Z" transform="translate(-7.043 418.239)" fill="#016286"/><path d="M0-392.1l106.4-37.708,69.854,6.51s-67.91.743-96.955,27.12C45.04-365.064,34.2-310.99,69.4-264.843c31.309,41.05,87.8,45.23,114.409,40.906s65.34-18.033,76.584-19.043c34.785-3.124,39.935,19.043,39.935,19.043v67.061H0Z" transform="translate(-11.833 421.671)" fill="#078cbd"/><g transform="translate(0 0)" fill="none"><path d="M128,0A128,128,0,1,1,0,128,128,128,0,0,1,128,0Z" stroke="none"/><path d="M 128 10 C 62.93458557128906 10 10 62.93458557128906 10 128 C 10 193.0654144287109 62.93458557128906 246 128 246 C 193.0654144287109 246 246 193.0654144287109 246 128 C 246 62.93458557128906 193.0654144287109 10 128 10 M 128 0 C 198.6924133300781 0 256 57.30758666992188 256 128 C 256 198.6924133300781 198.6924133300781 256 128 256 C 57.30758666992188 256 0 198.6924133300781 0 128 C 0 57.30758666992188 57.30758666992188 0 128 0 Z" stroke="none" fill="#078cbd"/></g><path d="M0-333.588s18.788-12.425,21.853,0c8.327,33.766-3.981,105.549,76.659,148.1s137.346-13.89,161.8-14.865c25.913-1.033,40.014,23.669,40.014,23.669v67.059H0Z" transform="translate(-11.833 382.559)" fill="#29b4dd"/></g></g></svg>