<svg xmlns="http://www.w3.org/2000/svg" xmlns:xlink="http://www.w3.org/1999/xlink" width="1920" height="719" viewBox="0 0 1920 719">
  <defs>
    <linearGradient id="linear-gradient" x2="1" y2="1" gradientUnits="objectBoundingBox">
      <stop offset="0" stop-color="#07133d"/>
      <stop offset="1" stop-color="#000206"/>
    </linearGradient>
    <linearGradient id="linear-gradient-2" x1="0.5" x2="0.5" y2="1" gradientUnits="objectBoundingBox">
      <stop offset="0" stop-color="#545777"/>
      <stop offset="1" stop-opacity="0.529"/>
    </linearGradient>
    <linearGradient id="linear-gradient-3" x2="1" y2="1" gradientUnits="objectBoundingBox">
      <stop offset="0"/>
      <stop offset="1" stop-color="#143247"/>
    </linearGradient>
    <clipPath id="clip-path">
      <path id="Ellipse_1" data-name="Ellipse 1" d="M71.146,0A71.146,71.146,0,1,1,0,71.146,71.146,71.146,0,0,1,71.146,0Z" fill="#fff"/>
    </clipPath>
    <clipPath id="clip-path-2">
      <path id="Path_18290" data-name="Path 18290" d="M309.064,305.826a2.9,2.9,0,0,0,2.56,1.475H509.665a2.962,2.962,0,0,0,2.566-4.435l-31.555-55-.481-.841-33.64-58.639-.481-.841-32.859-57.274a2.963,2.963,0,0,0-5.138,0l-32.859,57.274-.481.841L341.1,247.022l-.481.841-31.555,55a2.906,2.906,0,0,0,.006,2.957Z" transform="translate(-308.657 -128.78)" fill="none"/>
    </clipPath>
    <clipPath id="clip-FirstDiveDraft">
      <rect width="1920" height="719"/>
    </clipPath>
  </defs>
  <g id="FirstDiveDraft" clip-path="url(#clip-FirstDiveDraft)">
    <rect width="1920" height="719" fill="#fff"/>
    <g id="Group_309" data-name="Group 309" transform="translate(-629.562 -354.882)">
      <rect id="Rectangle_146" data-name="Rectangle 146" width="1920" height="719" transform="translate(629.561 354.882)" fill="url(#linear-gradient)"/>
      <g id="Group_308" data-name="Group 308" transform="translate(0)">
        <g id="Group_293" data-name="Group 293">
          <circle id="Ellipse_701" data-name="Ellipse 701" cx="112.549" cy="112.549" r="112.549" transform="translate(1786.687 387.229)" fill="url(#linear-gradient-2)"/>
          <g id="Group_292" data-name="Group 292" transform="translate(0)" style="isolation: isolate">
            <path id="_5" data-name="5" d="M0,43.8S238.892-19.7,431.838,6.217C562.076,23.711,670.033,46.39,766.87,164.368,817.129,225.6,779.98,8.148,870.8,148.008s45.635,330.7,45.635,330.7S813.047,333.287,682.608,327.619s-95.159,104.3-104.993,219.814c-8.893,104.462,22.619,148.737,189.315,143.438,91.332-2.9,243.22-112.422,326.266-102.13,112.776,13.977,197.343,177.682,197.343,177.682v288.159H0Z" transform="matrix(0.951, 0.309, -0.309, 0.951, 325.884, 26.977)" fill="#021423"/>
            <path id="_4" data-name="4" d="M0-328.566s238.892-63.5,431.838-37.579C544.9-350.958,748.9-359.1,842.057-239S949.45,191.268,949.45,191.268,495.262-126.4,474.775,114.25c-8.893,104.462,123.357,193.51,290.052,188.211,91.332-2.9,137.55-34.352,351.936-10.591s507.711,121.683,507.711,121.683V701.711L0,682.22Z" transform="translate(275.439 511.183)" fill="#052c4a"/>
            <path id="_3" data-name="3" d="M0-102.087s480.885-124.337,673.831-98.42C763.936-188.4,840.7-157.237,955.306-58.684s123.425,385.82,123.425,385.82S940.918,159.929,780.275,114.9C573.543,56.961,313.254,41.516,358.406,292.283c16.979,94.3,118.731,198.19,250.7,252.778,115.917,47.949,261.527,53.184,305.779,40.692,94.353-26.636,135.08-40.692,258.256-40.692s70.991,6.212,234.449,40.692,375.539,45.489,375.539,45.489l-54.548,451.59L0,908.7Z" transform="translate(234.274 264.121)" fill="#03345a"/>
            <path id="_2" data-name="2" d="M0-267.773,457.229-429.807,757.4-401.823s-291.81,3.194-416.627,116.539c-147.231,133.7-193.8,366.062-42.558,564.359,134.537,176.4,377.268,194.36,491.63,175.779s148.838-86.723,390.766-79.511,786.321,120,786.321,120V783.5L0,743.013Z" transform="translate(213.691 429.807)" fill="#00497a"/>
            <path id="_1" data-name="1" d="M0-315.38s80.736-53.392,93.9,0c35.781,145.1-17.1,453.553,329.411,636.418s382.3-33.505,690.162-27.89,837.183,128.176,837.183,128.176V709.482L0,647.03Z" transform="translate(213.691 560.781)" fill="#1c5174"/>
          </g>
        </g>
        <text id="THE_DEEP_IS_CALLING" data-name="THE DEEPIS CALLING" transform="translate(785.797 705.301)" fill="#fff" font-size="158" font-family="Montserrat" font-weight="800" font-style="italic"><tspan x="0" y="0">THE DEEP</tspan><tspan x="0" y="128">IS CALLING</tspan></text>
        <rect id="Guide" width="640.278" height="720.313" transform="translate(1909.285 354.215)" fill="url(#linear-gradient-3)"/>
        <rect id="Guide-2" data-name="Guide" width="1280.556" height="720.313" transform="translate(628.729 354.215)" fill="none" opacity="0.1"/>
        <g id="Group_307" data-name="Group 307" transform="translate(1972.268 408.36)">
          <g id="Layer_2" transform="translate(0 319.729)" style="isolation: isolate">
            <g id="Group_294" data-name="Group 294" transform="translate(0)">
              <path id="Path_18244" data-name="Path 18244" d="M278.275,80.6a.564.564,0,0,1,.632-.641h10.817a9.1,9.1,0,0,1,7.381,3.374,13.4,13.4,0,0,1,2.8,8.85v23.682a13.951,13.951,0,0,1-2.929,8.85,8.862,8.862,0,0,1-7.131,3.374H278.9a.557.557,0,0,1-.632-.632V80.606h0Zm191.8,64.6.2-.018c1.229-.125,2.439-.267,3.65-.41.312-.036.623-.08.935-.116q1.87-.24,3.713-.507l.347-.053c1.14-.169,2.261-.347,3.374-.534.3-.053.605-.1.908-.151,1.193-.2,2.368-.418,3.534-.641.151-.027.294-.062.445-.089,1.051-.2,2.092-.418,3.125-.632.294-.062.579-.125.864-.187,1.131-.24,2.253-.49,3.348-.748.169-.036.338-.08.507-.125.979-.231,1.941-.463,2.894-.7.267-.062.534-.134.8-.2,1.068-.267,2.128-.543,3.161-.828l.5-.134c.543-.151,1.086-.294,1.62-.445h0c6.33-1.79,12.064-3.7,16.987-5.529-5.253,1.3-10.951,2.546-16.987,3.632V130a1.756,1.756,0,0,0-1.905-1.905H464.02a.558.558,0,0,1-.632-.632V114.224a.561.561,0,0,1,.632-.632h23.557a1.756,1.756,0,0,0,1.905-1.905V95.136a1.756,1.756,0,0,0-1.905-1.905H464.02a.558.558,0,0,1-.632-.632V80.633a.564.564,0,0,1,.632-.641h38.069a1.756,1.756,0,0,0,1.905-1.905V61.411a1.756,1.756,0,0,0-1.905-1.905H441.362a1.756,1.756,0,0,0-1.905,1.905v76.753c-8.9-2.021-15.571-4.923-25.276-7.274l20.566-69.23a1.781,1.781,0,0,0-.2-1.594,1.728,1.728,0,0,0-1.46-.57H411.83a1.915,1.915,0,0,0-2.039,1.656l-12.349,53.73c-.089.338-.214.507-.383.507s-.294-.169-.383-.507l-12.731-53.73a1.915,1.915,0,0,0-2.039-1.656H360.139c-1.193,0-1.781.507-1.781,1.531a1.452,1.452,0,0,0,.125.632l19.2,65.322a87.71,87.71,0,0,0-23.914,2.893v-68.5a1.756,1.756,0,0,0-1.905-1.905H331.747a1.756,1.756,0,0,0-1.905,1.905v76.958a56.6,56.6,0,0,1-16.328,2.974,25.79,25.79,0,0,0,10.345-21.367V88.111a26.437,26.437,0,0,0-4.327-15.019,28.171,28.171,0,0,0-12.286-10.06,44.271,44.271,0,0,0-18.269-3.561H256.258a1.756,1.756,0,0,0-1.905,1.905v77.661a49.11,49.11,0,0,0-15.8,10.408,45.647,45.647,0,0,1,15.821-8.226q1.5-.427,3.072-.775l.383-.08c.392-.08.784-.16,1.184-.231.169-.027.338-.053.508-.089.365-.062.73-.125,1.1-.169l.57-.08,1.086-.134c.2-.027.4-.045.6-.062.374-.036.748-.071,1.122-.1.2-.018.392-.027.6-.045.409-.027.819-.045,1.229-.062.178,0,.347-.018.525-.018.525-.018,1.051-.018,1.585-.018h.2c.605,0,1.229.018,1.843.036.142,0,.285.018.427.018.472.018.953.044,1.433.08l.668.053c.409.036.828.071,1.238.116l.757.08c.392.044.792.1,1.193.151.267.036.534.071.8.116l1.211.187c.276.045.543.089.819.142.419.071.837.16,1.264.24l.8.16c.463.1.935.2,1.407.312.232.053.463.1.695.16.7.169,1.416.356,2.137.552,1.077.294,2.119.552,3.143.8.125.027.249.062.374.089.97.231,1.923.436,2.858.632.142.027.294.062.436.089.926.187,1.825.356,2.706.5l.347.053c.917.151,1.807.276,2.68.392h.089c1.852.24,3.606.392,5.288.463h.08q1.242.053,2.431.053h.1q1.2,0,2.35-.053h0c8.681-.4,15.3-2.876,22.142-5.68l.053-.018c.409-.169.828-.338,1.246-.508.231-.1.463-.2.694-.285s.472-.2.712-.294c1.282-.525,2.582-1.059,3.909-1.585l.125-.044c.418-.169.846-.329,1.273-.49l.08-.027q2.07-.788,4.282-1.54l.053-.018c1.976-.659,4.042-1.273,6.25-1.816l.062-.018q2.484-.614,5.217-1.086a86.532,86.532,0,0,1,16.266-1.184c3.089.045,5.983.16,8.7.32.881.053,1.736.116,2.582.178.2.018.4.036.605.045.7.053,1.4.116,2.074.178.134.009.276.027.41.036.792.08,1.576.16,2.341.249l.445.053c.632.071,1.264.151,1.87.231.16.018.329.044.49.062.73.1,1.451.2,2.155.312l.116.018c.659.1,1.309.2,1.941.321l.454.08c.623.107,1.238.223,1.834.338l.125.027c.65.125,1.282.258,1.914.392.125.027.249.053.365.08.534.116,1.051.231,1.567.347.1.018.2.045.285.062.605.142,1.193.285,1.781.436l.16.036c.525.134,1.051.276,1.558.41.1.027.2.053.3.08,1.122.312,2.208.623,3.259.944l.232.071c.516.16,1.033.32,1.531.481h0c.543.178,1.086.356,1.62.534h.018c.525.187,1.05.365,1.567.543,9.464,3.285,17.112,6.82,29.255,8.28.089.009.178.018.267.036.721.089,1.46.16,2.217.232h.125c.739.08,1.5.134,2.27.187l.214.018c.775.053,1.567.089,2.377.125.133,0,.276.009.409.018.819.036,1.656.053,2.511.071h.143c.819.018,1.665.018,2.519.009h.463c.872,0,1.772-.027,2.689-.044.187,0,.365-.009.552-.018.953-.027,1.923-.062,2.929-.116,1.327-.062,2.644-.151,3.953-.249.32-.027.65-.045.97-.071,1.291-.1,2.582-.214,3.855-.338h0Z" transform="translate(-116.231 -59.47)" fill="#fff"/>
              <path id="Path_18245" data-name="Path 18245" d="M528.139,157.631a1.43,1.43,0,0,1-.605-.481,1.259,1.259,0,0,1-.214-.73v-.142l.027-.053.053-.027h.748l.054.027.027.053v.1a.543.543,0,0,0,.24.445,1.112,1.112,0,0,0,.659.178.731.731,0,0,0,.517-.151.459.459,0,0,0,.169-.365.362.362,0,0,0-.107-.267.993.993,0,0,0-.285-.187c-.125-.053-.312-.134-.579-.223a5.142,5.142,0,0,1-.748-.312,1.6,1.6,0,0,1-.516-.427,1.055,1.055,0,0,1-.2-.677,1.177,1.177,0,0,1,.2-.686,1.272,1.272,0,0,1,.57-.454,2.033,2.033,0,0,1,.837-.16,2.176,2.176,0,0,1,.89.178,1.483,1.483,0,0,1,.614.5,1.25,1.25,0,0,1,.223.739v.1l-.027.053-.054.027h-.757l-.053-.027-.018-.053v-.053a.607.607,0,0,0-.232-.472.9.9,0,0,0-.623-.2.772.772,0,0,0-.481.134.432.432,0,0,0-.178.365.418.418,0,0,0,.1.276.893.893,0,0,0,.3.2c.134.062.339.142.623.24a7.77,7.77,0,0,1,.73.3,1.419,1.419,0,0,1,.481.392,1.044,1.044,0,0,1,.214.677,1.188,1.188,0,0,1-.454.979,1.922,1.922,0,0,1-1.229.356,2.247,2.247,0,0,1-.917-.169Z" transform="translate(-147.907 -69.74)" fill="#fff"/>
              <path id="Path_18246" data-name="Path 18246" d="M535.364,153.15h.766l.053.027.027.053v4.443l-.027.062-.053.018h-.766l-.053-.018-.027-.062v-2.893l-.009-.027-.027.018-.7,1.1-.089.045h-.392l-.089-.045-.695-1.1-.027-.018-.018.027v2.893l-.018.062-.053.018h-.775l-.053-.018-.027-.062V153.23l.027-.053.053-.027h.775l.089.053.988,1.531h.036l1-1.531.089-.053Z" transform="translate(-148.455 -69.746)" fill="#fff"/>
              <path id="Path_18247" data-name="Path 18247" d="M107.615,93.82H126.81L125,101.21h-9.2l-.917,3.882h9.6l-1.665,6.855h-9.473l-2.279,9.731H101.16l6.455-27.858Z" transform="translate(-101.16 -63.238)" fill="#fff"/>
              <path id="Path_18248" data-name="Path 18248" d="M132.1,93.82h9.918l-6.464,27.858H125.64L132.1,93.82Z" transform="translate(-103.845 -63.238)" fill="#fff"/>
              <path id="Path_18249" data-name="Path 18249" d="M146.159,93.923l.632-.08c3.187-.374,7.14-.623,9.322-.623a23.1,23.1,0,0,1,8.6,1.291,6.905,6.905,0,0,1,4.362,6.553,10.35,10.35,0,0,1-2.5,6.846,9.71,9.71,0,0,1-5.324,3.214l-.632.2a4.514,4.514,0,0,1,.5.418c.775.872,3.089,5.386,5.048,9.856H155.249c-1.407-3.971-1.816-5.012-3.686-9.517l-2.181,9.517H139.74l6.41-27.68h0Zm7.318,13.114c3.187,0,5.413-1.879,5.413-4.549,0-1.424-1.051-2.128-3.089-2.128a6.87,6.87,0,0,0-1.549.169l-1.5,6.428a3.664,3.664,0,0,0,.73.08" transform="translate(-105.392 -63.172)" fill="#fff"/>
              <path id="Path_18250" data-name="Path 18250" d="M198.833,93.82H222.9l-1.683,8.066h-7.14l-4.728,19.792h-9.918l4.728-19.792H196.42l2.413-8.066Z" transform="translate(-111.61 -63.238)" fill="#fff"/>
              <path id="Path_18251" data-name="Path 18251" d="M215.853,119.52a2.417,2.417,0,1,1-2.413,2.413,2.387,2.387,0,0,1,2.413-2.413m0,4.532a2.114,2.114,0,1,0-2.11-2.119,2.111,2.111,0,0,0,2.11,2.119m-.935-3.356c.125-.009.142-.018.383-.036s.347-.027.454-.027c.792,0,1.184.312,1.184.9a.669.669,0,0,1-.472.694h-.036l.045.053a6.316,6.316,0,0,1,.6.881h-.908c-.187-.347-.24-.436-.481-.828v.828h-.775V120.7h0Zm.864,1.157c.214,0,.338-.107.338-.3s-.116-.294-.329-.294h-.107v.579h.1" transform="translate(-113.477 -66.057)" fill="#fff"/>
              <path id="Path_18252" data-name="Path 18252" d="M190.4,106.777a21.551,21.551,0,0,0-4.728-2.76l-1.959-.917c-.641-.338-.953-.668-.953-1.042,0-1,1.273-1.754,3-1.754a19.791,19.791,0,0,1,5.778,1.335l2.03-7.541a24.627,24.627,0,0,0-6.49-.9c-8.093,0-14.325,4.425-14.325,10.149,0,3.009,2,5.137,7.007,7.47,2.368,1.086,2.778,1.38,2.778,2.128,0,1.131-1.229,1.834-3.232,1.834a22.008,22.008,0,0,1-7.14-1.674h0l-2.172,7.772a31.155,31.155,0,0,0,8.68,1.291,15.187,15.187,0,0,0,9.366-2.715c2.822-2,4.638-5.093,4.638-7.888a6.18,6.18,0,0,0-2.27-4.8" transform="translate(-108.71 -63.17)" fill="#fff"/>
              <path id="Path_18253" data-name="Path 18253" d="M610.724,108.526a.488.488,0,0,1,.481.5v14.423a.488.488,0,0,1-.481.5h-1.291a.522.522,0,0,1-.5-.5V109.025a.522.522,0,0,1,.5-.5h1.291m16.889,13.6a3.407,3.407,0,1,1,3.205-3.4,3.234,3.234,0,0,1-3.205,3.4m0-8.9a5.511,5.511,0,1,0,5.493,5.511,5.444,5.444,0,0,0-5.493-5.511m-6.063,9.259a.46.46,0,0,1-.107.721,5.537,5.537,0,0,1-3.356,1.042,5.526,5.526,0,0,1,0-11.049,5.561,5.561,0,0,1,3.356,1.051.465.465,0,0,1,.107.721l-.606.846c-.24.329-.525.24-.766.089a3.857,3.857,0,0,0-2.03-.632,3.468,3.468,0,0,0,0,6.909,3.886,3.886,0,0,0,1.985-.632c.24-.134.5-.24.766.107l.65.828Zm-20.3-.329a3.416,3.416,0,1,1,3.205-3.419,3.249,3.249,0,0,1-3.205,3.419m4.968-8.654h-1.282a.5.5,0,0,0-.5.5v.872a4.068,4.068,0,0,0-3.419-1.674A5.531,5.531,0,0,0,601,124.24a4.131,4.131,0,0,0,3.445-1.674v.917a.506.506,0,0,0,.5.481h1.282a.484.484,0,0,0,.481-.481V114a.488.488,0,0,0-.481-.5m60.292,9.927a.358.358,0,0,1-.347.525h-1.433a.574.574,0,0,1-.57-.392l-2.662-7.149-2.7,7.149a.55.55,0,0,1-.57.392h-1.282a.563.563,0,0,1-.57-.392l-2.724-7.194-2.68,7.194a.582.582,0,0,1-.57.392h-1.353a.6.6,0,0,1-.57-.392l-2.662-7.194-2.742,7.194a.55.55,0,0,1-.57.392h-1.282a.564.564,0,0,1-.57-.392l-2.68-7.194-2.68,7.194a.567.567,0,0,1-.57.392h-1.4a.354.354,0,0,1-.347-.525l3.641-9.526a.565.565,0,0,1,.57-.41h1.567a.591.591,0,0,1,.57.41l2.573,6.953L644.5,113.9a.565.565,0,0,1,.57-.41h1.549a.591.591,0,0,1,.57.41l2.573,6.953,2.573-6.953a.565.565,0,0,1,.57-.41h1.549a.591.591,0,0,1,.57.41l2.618,6.953,2.546-6.953a.565.565,0,0,1,.57-.41h1.567a.591.591,0,0,1,.57.41l3.641,9.526m-88.274-2.555-1-2.609a.62.62,0,0,0-.65-.41h-1.309a.428.428,0,0,0-.436.632l1.318,3.428a5.817,5.817,0,0,1-1.389.169,5.85,5.85,0,1,1,5.511-5.84,5.9,5.9,0,0,1-2.048,4.63M574.8,108.25a8,8,0,0,0,0,15.99,7.949,7.949,0,0,0,2.172-.294l.864,2.235a.559.559,0,0,0,.588.392h1.371c.329,0,.57-.214.419-.632l-1.122-2.92a8.029,8.029,0,0,0-4.282-14.77m18.946,5.244a.5.5,0,0,1,.5.5v9.482a.507.507,0,0,1-.5.481h-1.282a.479.479,0,0,1-.481-.454v-.872a3.866,3.866,0,0,1-3.4,1.611,4.16,4.16,0,0,1-4.4-4.487v-5.769a.506.506,0,0,1,.5-.481h1.282a.484.484,0,0,1,.481.481v5.4a2.574,2.574,0,0,0,2.724,2.9,2.652,2.652,0,0,0,2.813-2.876v-5.422a.5.5,0,0,1,.481-.481h1.282" transform="translate(-152.244 -64.821)" fill="#fff"/>
              <path id="Path_18254" data-name="Path 18254" d="M593.1,90.786h-.97v1.46h.97a.727.727,0,1,0,0-1.451h0Zm.053,2.395h-1.024v2H591.09V89.86h2.065a1.667,1.667,0,1,1,0,3.33h0Z" transform="translate(-154.903 -62.804)" fill="#fff"/>
              <path id="Path_18255" data-name="Path 18255" d="M598.811,90.786h-.979v1.407h.979a.705.705,0,1,0,0-1.407Zm.81,4.4-1.042-2.128h-.748v2.128H596.79V89.86h2.083a1.607,1.607,0,0,1,1.727,1.629,1.431,1.431,0,0,1-.97,1.4l1.193,2.3Z" transform="translate(-155.528 -62.804)" fill="#fff"/>
              <path id="Path_18256" data-name="Path 18256" d="M602.71,95.184V89.86h3.508v.926h-2.466v1.255h2.1v.926h-2.1v1.291h2.466v.926Z" transform="translate(-156.177 -62.804)" fill="#fff"/>
              <path id="Path_18257" data-name="Path 18257" d="M609.621,95.222a2.481,2.481,0,0,1-1.941-.7l.677-.677a1.731,1.731,0,0,0,1.282.445c.614,0,.944-.231.944-.659a.593.593,0,0,0-.16-.445A.78.78,0,0,0,609.95,93l-.641-.089a1.849,1.849,0,0,1-1.033-.445,1.4,1.4,0,0,1-.383-1.051,1.635,1.635,0,0,1,1.852-1.611,2.265,2.265,0,0,1,1.718.623l-.659.65a1.488,1.488,0,0,0-1.095-.365c-.552,0-.819.3-.819.677a.512.512,0,0,0,.16.383.961.961,0,0,0,.49.214l.632.089a1.8,1.8,0,0,1,1.015.41,1.487,1.487,0,0,1,.41,1.131c0,1.033-.863,1.611-1.976,1.611h0Z" transform="translate(-156.722 -62.797)" fill="#fff"/>
              <path id="Path_18258" data-name="Path 18258" d="M613.6,95.184V89.86h3.508v.926h-2.466v1.255h2.1v.926h-2.1v1.291h2.466v.926Z" transform="translate(-157.372 -62.804)" fill="#fff"/>
              <path id="Path_18259" data-name="Path 18259" d="M622.262,95.184l-2.11-3.267v3.267H619.11V89.86h.926l2.11,3.267V89.86h1.042v5.324Z" transform="translate(-157.976 -62.804)" fill="#fff"/>
              <path id="Path_18260" data-name="Path 18260" d="M627.49,90.786v4.4h-1.042v-4.4H625.06V89.86h3.819v.926Z" transform="translate(-158.629 -62.804)" fill="#fff"/>
              <path id="Path_18261" data-name="Path 18261" d="M630.73,95.184V89.86h3.5v.926h-2.466v1.255h2.1v.926h-2.1v1.291h2.466v.926Z" transform="translate(-159.251 -62.804)" fill="#fff"/>
              <path id="Path_18262" data-name="Path 18262" d="M638.839,91.115a.933.933,0,0,0-.775-.329h-.783v3.472h.783a.933.933,0,0,0,.775-.329c.2-.24.223-.623.223-1.424s-.027-1.148-.223-1.38h0Zm.721,3.561a1.954,1.954,0,0,1-1.407.507H636.23V89.86h1.923a1.968,1.968,0,0,1,1.407.507A2.684,2.684,0,0,1,640.1,92.5a2.751,2.751,0,0,1-.543,2.172h0Z" transform="translate(-159.854 -62.804)" fill="#fff"/>
              <path id="Path_18263" data-name="Path 18263" d="M646.689,92.949H645.6v1.309h1.086a.631.631,0,0,0,.695-.659.625.625,0,0,0-.695-.65Zm-.071-2.163H645.6v1.229h1.015a.618.618,0,1,0,0-1.229h0Zm.178,4.4H644.57V89.86h2.137a1.457,1.457,0,0,1,1.647,1.5,1.229,1.229,0,0,1-.659,1.1,1.241,1.241,0,0,1,.73,1.193,1.467,1.467,0,0,1-1.629,1.531h0Z" transform="translate(-160.769 -62.804)" fill="#fff"/>
              <path id="Path_18264" data-name="Path 18264" d="M652.475,93v2.181h-1.033V93l-1.6-3.143h1.131l1,2.146.979-2.146h1.131L652.475,93Z" transform="translate(-161.347 -62.804)" fill="#fff"/>
            </g>
          </g>
          <g id="Group_295" data-name="Group 295" transform="translate(0 469.73)">
            <text id="West_Coast_Invitational" data-name="West Coast
Invitational" transform="translate(168.164 57)" fill="#fff" font-size="59" font-family="Inter" font-weight="600"><tspan x="0" y="0">West Coast</tspan><tspan x="0" y="59">Invitational</tspan></text>
            <g id="Mask_Group_3" data-name="Mask Group 3" transform="translate(0 0)" clip-path="url(#clip-path)">
              <path id="Path_2" data-name="Path 2" d="M0,7.644S30.213-2.683,55.172.67c16.846,2.263,3.382-2.961,15.908,12.3,6.5,7.92.36,1.168,11.21-.093,9.906-1.151,19.931,7.57,19.931,7.57s-14.832-.331-21.268,9.294c-9.387,14.038-4.966,28.106-6.237,43.048C73.565,86.3,77.642,92.028,99.2,91.343c11.814-.376,31.461-14.542,42.2-13.211,14.587,1.809,25.526,22.983,25.526,22.983v37.273H0Z" transform="translate(8.546 -2.914) rotate(18)" fill="#043d46"/>
              <path id="Path_5" data-name="Path 5" d="M0-366.7s30.9-8.213,55.858-4.86c14.625,1.964,12.977-.864,30.929,7.151,12.62,5.635,20.652,21.534,20.652,21.534S65.139-361,58.08-319.661C56.806-299.854,77.64-282.311,99.2-283c13.912-1.61,31.461-14.542,42.2-13.211,14.587,1.809,25.526,22.983,25.526,22.983v37.272H0Z" transform="translate(1.41 385.795)" fill="#065d6a"/>
              <path id="Path_4" data-name="Path 4" d="M0-410.341s4.842-11.818,29.8-8.465c11.655,1.566,17.042-19.946,36.547-18.594,36.234,2.511,53.813,45.436,53.813,45.436s-40.061-24.351-58.616-7.1c-11.55,10.739-15.982,18.26-15.678,32.328.4,18.56,15.852,33.041,32.922,40.1,14.994,6.2,33.829,6.88,39.552,5.264,12.2-3.445,15.285-2.909,27.734-11.955a146.387,146.387,0,0,0,19.516-17.039l1.341,70.768H0Z" transform="translate(-3.915 426.777)" fill="#016286"/>
              <path id="Path_3" data-name="Path 3" d="M0-408.849l59.143-20.959,38.827,3.618s-37.747.413-53.891,15.074c-19.044,17.294-25.067,47.35-5.5,73,17.4,22.817,48.8,25.14,63.592,22.737s36.318-10.023,42.568-10.585c19.334-1.737,22.2,10.585,22.2,10.585V-278.1H0Z" transform="translate(-6.577 425.285)" fill="#078cbd"/>
              <g id="Ellipse_2" data-name="Ellipse 2" fill="none">
                <path d="M71.146,0A71.146,71.146,0,1,1,0,71.146,71.146,71.146,0,0,1,71.146,0Z" stroke="none"/>
                <path d="M 71.146240234375 2.5 C 61.87796020507812 2.5 52.88823699951172 4.31463623046875 44.42680358886719 7.893539428710938 C 40.35975646972656 9.613739013671875 36.43692016601562 11.74302673339844 32.76721954345703 14.22221374511719 C 29.13173675537109 16.67829895019531 25.71302032470703 19.4990234375 22.60601806640625 22.60601806640625 C 19.4990234375 25.71302032470703 16.67829895019531 29.13173675537109 14.22221374511719 32.76721954345703 C 11.74302673339844 36.43692016601562 9.613739013671875 40.35975646972656 7.893539428710938 44.42680358886719 C 4.31463623046875 52.88823699951172 2.5 61.87796020507812 2.5 71.146240234375 C 2.5 80.41452026367188 4.31463623046875 89.40423583984375 7.893539428710938 97.86567687988281 C 9.613739013671875 101.9327239990234 11.74302673339844 105.8555603027344 14.22221374511719 109.525260925293 C 16.67829895019531 113.1607208251953 19.4990234375 116.5794372558594 22.60601806640625 119.6864624023438 C 25.71302032470703 122.79345703125 29.13173675537109 125.6141815185547 32.76721954345703 128.0702667236328 C 36.43692016601562 130.5494537353516 40.35975646972656 132.6787414550781 44.42680358886719 134.3989410400391 C 52.88823699951172 137.9778442382812 61.87796020507812 139.79248046875 71.146240234375 139.79248046875 C 80.41452026367188 139.79248046875 89.40423583984375 137.9778442382812 97.86567687988281 134.3989410400391 C 101.9327239990234 132.6787414550781 105.8555603027344 130.5494537353516 109.525260925293 128.0702667236328 C 113.1607208251953 125.6141815185547 116.5794372558594 122.79345703125 119.6864624023438 119.6864624023438 C 122.79345703125 116.5794372558594 125.6141815185547 113.1607208251953 128.0702667236328 109.525260925293 C 130.5494537353516 105.8555603027344 132.6787414550781 101.9327239990234 134.3989410400391 97.86567687988281 C 137.9778442382812 89.40423583984375 139.79248046875 80.41452026367188 139.79248046875 71.146240234375 C 139.79248046875 61.87796020507812 137.9778442382812 52.88823699951172 134.3989410400391 44.42680358886719 C 132.6787414550781 40.35975646972656 130.5494537353516 36.43692016601562 128.0702667236328 32.76721954345703 C 125.6141815185547 29.13173675537109 122.79345703125 25.71302032470703 119.6864624023438 22.60601806640625 C 116.5794372558594 19.4990234375 113.1607208251953 16.67829895019531 109.525260925293 14.22221374511719 C 105.8555603027344 11.74302673339844 101.9327239990234 9.613739013671875 97.86567687988281 7.893539428710938 C 89.40423583984375 4.31463623046875 80.41452026367188 2.5 71.146240234375 2.5 M 71.146240234375 0 C 110.4392013549805 0 142.29248046875 31.85326385498047 142.29248046875 71.146240234375 C 142.29248046875 110.4392013549805 110.4392013549805 142.29248046875 71.146240234375 142.29248046875 C 31.85326385498047 142.29248046875 0 110.4392013549805 0 71.146240234375 C 0 31.85326385498047 31.85326385498047 0 71.146240234375 0 Z" stroke="none" fill="#078cbd"/>
              </g>
              <path id="Path_1" data-name="Path 1" d="M0-336.041s10.443-6.906,12.146,0c4.628,18.768-2.213,58.667,42.609,82.321s76.341-7.721,89.934-8.263c14.4-.574,22.241,13.156,22.241,13.156v37.273H0Z" transform="translate(-6.577 363.26)" fill="#29b4dd"/>
            </g>
          </g>
          <g id="Group_306" data-name="Group 306" transform="translate(0 0)">
            <g id="Group_296" data-name="Group 296" transform="translate(267.298 72.435)">
              <path id="Path_18265" data-name="Path 18265" d="M1640.629,472.922h-9.149v23.8h-7.99v-23.8h-9.149V466.05h26.289v6.872Z" transform="translate(-1552.818 -421.806)" fill="#fff"/>
              <path id="Path_18266" data-name="Path 18266" d="M1705.19,466.05h24.446v6.4h-16.454v5.37h15.037v6.186h-15.037v5.841h16.885v6.872H1705.19V466.05Z" transform="translate(-1616.441 -421.806)" fill="#fff"/>
              <path id="Path_18267" data-name="Path 18267" d="M1812.926,475.491c-.425-3.093-2.835-4.726-6.186-4.726-5.155,0-7.133,4.553-7.133,9.1s1.978,9.108,7.133,9.108c3.736,0,5.885-2.149,6.186-5.67h7.993c-.431,7.906-6.227,12.545-14.007,12.545-9.276,0-15.291-7.088-15.291-15.983s6.014-15.98,15.291-15.98c6.617,0,13.792,4.211,14.007,11.6Z" transform="translate(-1676.968 -420.293)" fill="#fff"/>
              <path id="Path_18268" data-name="Path 18268" d="M1894.66,466.05h7.987v11.17h10.525V466.05h7.993v30.671h-7.993V484.092h-10.525v12.629h-7.987V466.05Z" transform="translate(-1749.127 -421.806)" fill="#fff"/>
              <path id="Path_18269" data-name="Path 18269" d="M1430.369,606.528c-.432-3.093-2.835-4.726-6.186-4.726-5.155,0-7.133,4.555-7.133,9.108s1.978,9.108,7.133,9.108c3.737,0,5.885-2.149,6.186-5.673h7.993c-.432,7.906-6.231,12.545-14.009,12.545-9.279,0-15.293-7.088-15.293-15.98s6.015-15.98,15.293-15.98c6.615,0,13.789,4.211,14.009,11.6Z" transform="translate(-1409.06 -512.061)" fill="#fff"/>
              <path id="Path_18270" data-name="Path 18270" d="M1512.1,597.08h7.993v11.17h10.522V597.08h7.993v30.674h-7.993V615.125h-10.522v12.629H1512.1V597.08Z" transform="translate(-1481.219 -513.566)" fill="#fff"/>
              <path id="Path_18271" data-name="Path 18271" d="M1611.5,616.323h6.962l-3.4-10.738h-.086l-3.48,10.738Zm-.516-19.244h8.12l11.47,30.674h-8.335l-1.892-5.5h-10.7l-1.936,5.5h-8.206l11.469-30.674h0Z" transform="translate(-1542.433 -513.566)" fill="#fff"/>
              <path id="Path_18272" data-name="Path 18272" d="M1702.28,597.08h7.99v23.8h14.308v6.875h-22.3V597.08Z" transform="translate(-1614.402 -513.566)" fill="#fff"/>
              <path id="Path_18273" data-name="Path 18273" d="M1781.25,597.08h7.987v23.8h14.308v6.875H1781.25V597.08Z" transform="translate(-1669.705 -513.566)" fill="#fff"/>
              <path id="Path_18274" data-name="Path 18274" d="M1860.21,597.08h24.446v6.4H1868.2v5.371h15.036v6.186H1868.2v5.841h16.885v6.875H1860.21V597.08Z" transform="translate(-1725.001 -513.566)" fill="#fff"/>
              <path id="Path_18275" data-name="Path 18275" d="M1949.49,597.08h8.206l10.654,18.9h.087v-18.9h7.517v30.674h-8.206l-10.654-19.118h-.083v19.118h-7.52V597.08Z" transform="translate(-1787.525 -513.566)" fill="#fff"/>
              <path id="Path_18276" data-name="Path 18276" d="M2072.973,626.256h-5.159l-.47-3.351c-2.107,2.964-5.715,3.995-8.55,3.995-9.281,0-15.293-7.088-15.293-15.98s6.015-15.98,15.293-15.98c6.36,0,13.145,3.393,13.877,11.083h-7.991c-.26-2.619-2.835-4.211-6.057-4.211-5.158,0-7.129,4.556-7.129,9.108s1.975,9.108,7.129,9.108c3.954,0,6.618-1.849,7.046-4.643h-5.586v-5.928h12.891v16.8Z" transform="translate(-1853.36 -512.067)" fill="#fff"/>
              <path id="Path_18277" data-name="Path 18277" d="M2150.28,597.08h24.443v6.4H2158.27v5.371h15.039v6.186H2158.27v5.841h16.882v6.875H2150.28V597.08Z" transform="translate(-1928.138 -513.566)" fill="#fff"/>
              <path id="Path_18278" data-name="Path 18278" d="M1592.077,320.74h24.533l-2.308,9.446h-11.76l-1.162,4.966h12.266l-2.136,8.754H1599.4l-2.908,12.437H1583.82l8.257-35.6Z" transform="translate(-1531.444 -320.045)" fill="#fff"/>
              <path id="Path_18279" data-name="Path 18279" d="M1685.074,320.74h12.677l-8.256,35.6H1676.82l8.254-35.6Z" transform="translate(-1596.573 -320.045)" fill="#fff"/>
              <path id="Path_18280" data-name="Path 18280" d="M1747.933,336.09c4.07,0,6.92-2.4,6.92-5.817,0-1.816-1.337-2.721-3.953-2.721a8.728,8.728,0,0,0-1.978.213L1747,335.985a4.844,4.844,0,0,0,.929.108h0Zm-9.359-16.762.815-.108c4.07-.48,9.129-.8,11.919-.8,4.651,0,8.257.534,10.99,1.654a8.825,8.825,0,0,1,5.581,8.38,13.252,13.252,0,0,1-3.2,8.754c-1.8,2.08-3.431,3.1-6.8,4.109l-.813.267a7.645,7.645,0,0,1,.639.534c.989,1.121,3.953,6.887,6.456,12.6H1750.2c-1.8-5.071-2.325-6.4-4.708-12.171l-2.791,12.171H1730.38l8.2-35.388h0Z" transform="translate(-1634.081 -318.42)" fill="#fff"/>
              <path id="Path_18281" data-name="Path 18281" d="M1948.673,320.74h30.752l-2.146,10.307h-9.129l-6.048,25.3h-12.674l6.048-25.3h-9.9l3.093-10.307Z" transform="translate(-1784.786 -320.045)" fill="#fff"/>
              <path id="Path_18282" data-name="Path 18282" d="M2013.219,421.3c.276,0,.432-.132.432-.384s-.144-.372-.42-.372a.488.488,0,0,0-.132.012v.728a.409.409,0,0,0,.12.012h0Zm-1.111-1.48c.156-.012.18-.024.491-.048s.444-.036.572-.036c1.017,0,1.517.4,1.517,1.148a.846.846,0,0,1-.6.884l-.048.012a.144.144,0,0,1,.06.06,9.392,9.392,0,0,1,.764,1.124h-1.159c-.24-.443-.312-.563-.611-1.064v1.064h-.993v-3.144h0Zm1.2,4.289a2.706,2.706,0,1,0-2.7-2.712,2.7,2.7,0,0,0,2.7,2.712Zm0-5.8a3.09,3.09,0,1,1,0,6.18,3.09,3.09,0,0,1,0-6.18Z" transform="translate(-1830.054 -388.373)" fill="#fff"/>
              <path id="Path_18283" data-name="Path 18283" d="M1847.24,353.814a39.879,39.879,0,0,0,11.1,1.651c4.942,0,8.721-1.121,11.976-3.471,3.6-2.562,5.931-6.512,5.931-10.088a7.9,7.9,0,0,0-2.907-6.141,26.916,26.916,0,0,0-6.048-3.521l-2.5-1.175c-.815-.429-1.22-.854-1.22-1.334,0-1.28,1.627-2.242,3.836-2.242,1.654,0,3.623.479,7.387,1.711l2.6-9.638a31.47,31.47,0,0,0-8.3-1.148c-10.349,0-18.315,5.658-18.315,12.971,0,3.842,2.56,6.566,8.955,9.554,3.024,1.387,3.548,1.762,3.548,2.721,0,1.442-1.571,2.35-4.13,2.35-2.269,0-5.173-.7-9.128-2.134h-.006l-2.781,9.932Z" transform="translate(-1715.918 -318.42)" fill="#fff"/>
            </g>
            <g id="Group_305" data-name="Group 305" transform="translate(0)">
              <g id="Group_301" data-name="Group 301">
                <path id="Path_18284" data-name="Path 18284" d="M275.2,285.982H472.713a18.558,18.558,0,0,0,16.1-27.791L390.05,86.054a18.552,18.552,0,0,0-32.188,0L259.1,258.194a18.555,18.555,0,0,0,16.1,27.788Z" transform="translate(-256.652 -76.73)" fill="#fff"/>
                <path id="Path_18285" data-name="Path 18285" d="M393.338,104.5a10.12,10.12,0,0,1,8.877,5.143L500.972,281.78a10.233,10.233,0,0,1-8.877,15.327H294.579A10.233,10.233,0,0,1,285.7,281.78l98.756-172.137a10.129,10.129,0,0,1,8.877-5.143Zm98.756,185.324a2.951,2.951,0,0,0,2.56-4.421L395.9,113.263a2.955,2.955,0,0,0-5.125,0L292.016,285.4a2.951,2.951,0,0,0,2.559,4.421H492.092Z" transform="translate(-276.034 -96.177)"/>
                <g id="Group_297" data-name="Group 297" transform="translate(15.315 15.365)" clip-path="url(#clip-path-2)">
                  <path id="Path_18286" data-name="Path 18286" d="M279.093,297.4c.28,1.418,1.112,4.718,2.789,4.718H497.424c1.677,0,2.506-3.3,2.789-4.721a25.528,25.528,0,0,0,.006-9.451L465.875,101.686,465.349,99H313.956l-.526,2.686L279.087,287.942A25.547,25.547,0,0,0,279.093,297.4Z" transform="translate(-287.665 -107.949)" fill="#9edae9"/>
                  <path id="Path_18287" data-name="Path 18287" d="M462.455,257.325c5.13,4.267,16.025,5.926,24.244,3.693,5.25-1.427,9.051-4.1,13.655-6.121s11.106-3.387,16.161-1.749c3.777,1.223,5.568,3.738,8.72,5.436a21.841,21.841,0,0,0,10.707,2.194,20.311,20.311,0,0,1,3.822,0,9.943,9.943,0,0,1,2.855.989c15.331,7.389,22.3,19.394,20.908,30.768a14.093,14.093,0,0,1-3.378,8.056c-3.029,3.381,21.96,9.784,16.753,12.167-6.007,2.75-.544,29.112-8.171,29.8-6.265.565-53.242,52.349-59.27,51.231-11.815-2.188-30.647-52.358-41.988-55.243-8.817-2.242-20.313-14.213-29.028-16.581-1.394-.379,5.694-23.926,4.811-24.644a3.289,3.289,0,0,1-1.133-2.281c-.875-6.16,3.014-12.179,6.839-17.967a100.152,100.152,0,0,1,8.534-11.626c2.073-2.338,4.474-4.706,4.667-7.32" transform="translate(-399.317 -215.268)" fill="#0083ae"/>
                  <path id="Path_18288" data-name="Path 18288" d="M630.977,105.676c-3.242-2.659-7.185-5.49-11.245-4.444a12.223,12.223,0,0,0-5.015,3.191c-2.572,2.377-5.027,5.009-8.207,6.476s-7.38,1.433-9.751-1.145c-1.187-1.289-1.911-3.167-3.558-3.768-2-.733-4.021.838-5.956,1.74-5.793,2.7-12.474-.6-17.991-3.828a4.018,4.018,0,0,1-2.055-2.016,3.574,3.574,0,0,1,.3-2.326c1.37-3.42,3.915-6.217,6.442-8.9,7.876-8.366,17.291-16.978,28.781-17.173,3.558-.06,7.4.9,9.628,3.666a15.881,15.881,0,0,1,2.32,4.751q3.151,8.844,6.3,17.684" transform="translate(-489.443 -90.098)" fill="#f8e448"/>
                  <path id="Path_18289" data-name="Path 18289" d="M324.815,240.29l11.764,24.842a9.461,9.461,0,0,0,2.948,4.1c1.424.941,3.669.85,4.516-.628.448-.781.454-1.821,1.124-2.419.79-.709,2.052-.4,2.972.129,4.339,2.5,5.391,8.125,7.35,12.735,1.863,4.381,5.06,8.369,9.424,10.271s-.508,20.271,2.786,16.834c2.566-2.677,13.868-25.479,14.6-29.115q.843-4.169,1.689-8.336a13.338,13.338,0,0,1,1.505-4.537,4.533,4.533,0,0,1,3.951-2.308c.923.069,1.785.517,2.708.577,3.1.2,4.793-3.708,7.666-4.9a16.383,16.383,0,0,1,4.108,6.428c3.648,9.451,36.477,5.875,34.566,15.821-.526,2.732,13.4,19.424,12.263,21.963-1.214,2.713-.09,25.6-1.941,27.925-3.441,4.321,40.074,59.123,36.159,63.017-3.943,3.922-89.412.772-94.878,1.788-3.645.676-146.681,2.524-148.568-3.75-5.286-17.591,69.853-139.108,71.9-157.36a2.777,2.777,0,0,1,.805-1.992,2.264,2.264,0,0,1,1.611-.319c3.666.385,5.968,4.039,7.639,7.329" transform="translate(-261.515 -200.309)"/>
                </g>
                <g id="Group_298" data-name="Group 298" transform="translate(54.881 94.893)">
                  <path id="Path_18291" data-name="Path 18291" d="M484.99,428.184c.407-6.995,10.268-4.534,10.118,1.537-.078,3.2-2.853,4.508-5.545,3.89-2.778-.638-4.28-2.482-4.573-5.431Zm6.132-2.511c-3.36-.063-.755,5.865,1.22,6.38C494.823,432.7,494.32,425.694,491.122,425.673Z" transform="translate(-471.438 -414.775)" fill="#0083ae"/>
                  <path id="Path_18292" data-name="Path 18292" d="M824.363,633.519c-.842-1.154-1.5-2.9-.2-4.046a2.732,2.732,0,0,1,3.375-.012c2.485,1.963-.743,6.36-3.18,4.124h-.006v-.072h.006Z" transform="translate(-708.45 -558.297)" fill="#0083ae"/>
                  <path id="Path_18293" data-name="Path 18293" d="M889.741,705.862c-.692-.947-1.229-2.386-.162-3.324a2.242,2.242,0,0,1,2.772-.009c2.041,1.612-.611,5.224-2.61,3.386h-.006v-.057h.006Z" transform="translate(-754.351 -609.538)" fill="#0083ae"/>
                  <path id="Path_18294" data-name="Path 18294" d="M530.7,395.81c-.027,3.462,4.678,3.5,4.471.075C535.011,393.143,530.725,392.885,530.7,395.81Zm-1.535-2.4c.048.144.111.174.2.087C529.32,393.347,529.254,393.32,529.17,393.41Z" transform="translate(-502.378 -393.358)" fill="#0083ae"/>
                  <path id="Path_18295" data-name="Path 18295" d="M834.447,672.492a3.259,3.259,0,0,1-3.291-3.518c.126-2.245,1.951-3.06,3.953-2.919,1.8.129,3.222,1.208,3.171,3.171-.057,2.11-1.945,3.168-3.83,3.267Zm-.38-3.291c.644.788,3.039,2.23,2.652.06C836.455,667.769,834.057,667.445,834.066,669.2Z" transform="translate(-713.855 -584.317)" fill="#0083ae"/>
                  <path id="Path_18296" data-name="Path 18296" d="M440.3,613.238a2.491,2.491,0,0,1,3.623-.641c1.385,1.016,1.145,2.526.222,3.746a2.336,2.336,0,0,1-3.351.707c-1.325-.914-1.217-2.566-.492-3.812Zm2.263,1.127c-.773.084-2.694,1.016-1.145,1.672C442.484,616.49,443.689,615.093,442.562,614.365Z" transform="translate(-439.772 -546.528)" fill="#0083ae"/>
                  <path id="Path_18297" data-name="Path 18297" d="M496.982,476.593v-.114l-.012-.009v.129l.012-.009Z" transform="translate(-479.828 -451.562)" fill="#0083ae"/>
                </g>
                <g id="Group_300" data-name="Group 300" transform="translate(58.692 125.969)">
                  <path id="Path_18298" data-name="Path 18298" d="M453.239,518.447a.752.752,0,0,1-.749-.75V499.179a.752.752,0,0,1,.749-.749h3.746a.749.749,0,0,1,.749.749V517.7a.749.749,0,0,1-.749.75Z" transform="translate(-452.49 -498.017)" fill="#fff"/>
                  <path id="Path_18299" data-name="Path 18299" d="M481.989,523.759a.751.751,0,0,1-.749-.749V499.169a.751.751,0,0,1,.749-.749h4.46a.9.9,0,0,1,.938.674l5.134,15.359c.039.186.339.186.339-.075V506.23a.752.752,0,0,1,.749-.749h3.746a.751.751,0,0,1,.749.749v20.1a.751.751,0,0,1-.749.749h-4.421a.97.97,0,0,1-1.013-.639l-5.095-16.708c-.039-.189-.339-.189-.339.075V523a.749.749,0,0,1-.749.749h-3.746Z" transform="translate(-472.624 -498.009)" fill="#fff"/>
                  <path id="Path_18300" data-name="Path 18300" d="M533.6,524.654a.752.752,0,0,1-.749-.749V504.049c0-.261-.111-.375-.375-.375H521.719a.752.752,0,0,1-.749-.749v-3.746a.752.752,0,0,1,.749-.749h21.434a.75.75,0,0,1,.749.749v3.746a.751.751,0,0,1-.749.749h-4.684c-.261,0-.375.114-.375.375V523.9a.75.75,0,0,1-.749.749H533.6Z" transform="translate(-500.447 -498.016)" fill="#fff"/>
                  <path id="Path_18301" data-name="Path 18301" d="M604.8,524.1a9.05,9.05,0,0,1-5.02-1.349,8.151,8.151,0,0,1-3.111-3.635c-.714-1.537-1.049-4.385-1.049-8.541s.339-7.007,1.049-8.541a9.124,9.124,0,0,1,16.262,0c.713,1.538,1.049,4.385,1.049,8.541s-.339,7.007-1.049,8.541a8.154,8.154,0,0,1-3.111,3.635A9.057,9.057,0,0,1,604.8,524.1Zm0-5.284a3.268,3.268,0,0,0,3.3-1.8c.339-.785.525-2.922.525-6.444s-.186-5.658-.525-6.443a3.921,3.921,0,0,0-6.593,0c-.336.785-.525,2.922-.525,6.443s.189,5.658.525,6.444A3.271,3.271,0,0,0,604.8,518.817Z" transform="translate(-552.724 -497.05)" fill="#fff"/>
                  <path id="Path_18302" data-name="Path 18302" d="M679.187,535.139a.751.751,0,0,1-.749-.749v-30.35c0-.261-.111-.375-.375-.375h-5.434a.751.751,0,0,1-.749-.749v-3.746a.751.751,0,0,1,.749-.749h21.282a.749.749,0,0,1,.749.749v3.746a.751.751,0,0,1-.749.749h-9.854c-.261,0-.375.114-.375.375v30.35a.75.75,0,0,1-.749.749Z" transform="translate(-606.129 -498.009)" fill="#fff"/>
                  <path id="Path_18303" data-name="Path 18303" d="M732.629,524.647a.751.751,0,0,1-.749-.749v-17.32a.751.751,0,0,1,.749-.749h3.746a.749.749,0,0,1,.749.749V510.2c0,.261.114.375.375.375h5.619c.261,0,.375-.111.375-.375V499.169a.751.751,0,0,1,.749-.749h3.746a.752.752,0,0,1,.749.749V527.08a.751.751,0,0,1-.749.749h-3.746a.751.751,0,0,1-.749-.749V516.189c0-.264-.114-.375-.375-.375H737.5c-.261,0-.375.111-.375.375V523.9c0,.414-.485.749-.938.749h-3.56Z" transform="translate(-648.147 -498.009)" fill="#fff"/>
                  <path id="Path_18304" data-name="Path 18304" d="M800.14,524.647a.752.752,0,0,1-.75-.749V499.169a.752.752,0,0,1,.75-.749h13.6a.752.752,0,0,1,.749.749v3.746a.753.753,0,0,1-.749.749h-8.73c-.26,0-.375.114-.375.375v4.5c0,.261.114.375.375.375h6.275a.749.749,0,0,1,.75.749V513.4a.753.753,0,0,1-.75.749h-6.275c-.26,0-.375.111-.375.375v4.5c0,.264.114.375.375.375h3.273a.751.751,0,0,1,.749.749v3.746a.751.751,0,0,1-.749.749H800.14Z" transform="translate(-695.425 -498.009)" fill="#fff"/>
                  <path id="Path_18305" data-name="Path 18305" d="M538.239,629.666a.751.751,0,0,1-.749-.749V604.189a.751.751,0,0,1,.749-.749h7.343a8.457,8.457,0,0,1,8.131,4.984c.713,1.537,1.049,4.271,1.049,8.131s-.339,6.593-1.049,8.131a8.456,8.456,0,0,1-8.131,4.984h-7.343Zm7.343-5.283a3.269,3.269,0,0,0,3.3-1.8c.336-.788.524-2.772.524-6.033s-.189-5.245-.524-6.033a3.271,3.271,0,0,0-3.3-1.8h-2.472c-.261,0-.375.111-.375.375v14.91c0,.263.114.375.375.375h2.472Z" transform="translate(-512.016 -571.555)" fill="#fff"/>
                  <path id="Path_18306" data-name="Path 18306" d="M604,629.666a.751.751,0,0,1-.749-.749V604.189a.751.751,0,0,1,.749-.749h13.6a.751.751,0,0,1,.749.749v3.746a.754.754,0,0,1-.749.749h-8.73c-.261,0-.375.114-.375.375v4.5c0,.261.114.375.375.375h8.43a.749.749,0,0,1,.749.749v3.746a.753.753,0,0,1-.749.75h-8.43c-.261,0-.375.111-.375.374v4.5c0,.264.114.375.375.375h8.88a.752.752,0,0,1,.749.749v3.746a.751.751,0,0,1-.749.749H604Z" transform="translate(-558.067 -571.555)" fill="#fff"/>
                  <path id="Path_18307" data-name="Path 18307" d="M662.379,629.666a.751.751,0,0,1-.749-.749V604.189a.751.751,0,0,1,.749-.749h6.5a.751.751,0,0,1,.749.749v3.746a.753.753,0,0,1-.749.749h-1.63c-.261,0-.375.114-.375.375v4.5c0,.261.114.375.375.375h8.431a.749.749,0,0,1,.749.749v3.746a.754.754,0,0,1-.749.75h-8.431c-.261,0-.375.111-.375.374v4.5c0,.264.114.375.375.375h8.88a.751.751,0,0,1,.749.749v3.746a.751.751,0,0,1-.749.749h-13.75Z" transform="translate(-598.951 -571.555)" fill="#fff"/>
                  <path id="Path_18308" data-name="Path 18308" d="M720.759,629.666a.751.751,0,0,1-.749-.749V604.189a.751.751,0,0,1,.749-.749H729a7.871,7.871,0,1,1,0,15.734h-3.372c-.261,0-.375.111-.375.374v9.366a.749.749,0,0,1-.749.749h-3.746Zm8.056-15.734a2.622,2.622,0,0,0,0-5.245h-3.186c-.261,0-.375.114-.375.375v4.5c0,.261.114.375.375.375Z" transform="translate(-639.835 -571.555)" fill="#fff"/>
                  <g id="Group_299" data-name="Group 299" transform="translate(86.828 54.509)">
                    <path id="Path_18309" data-name="Path 18309" d="M742.9,682.547a1.14,1.14,0,0,1-.513-.414,1.093,1.093,0,0,1-.18-.62v-.075a.07.07,0,0,1,.021-.057.075.075,0,0,1,.057-.021h.815a.071.071,0,0,1,.057.021.075.075,0,0,1,.021.057v.033a.317.317,0,0,0,.156.261.682.682,0,0,0,.414.114.4.4,0,0,0,.279-.081.242.242,0,0,0,.084-.18.188.188,0,0,0-.1-.174,2.019,2.019,0,0,0-.384-.141l-.153-.042a2.809,2.809,0,0,1-.872-.42.891.891,0,0,1-.351-.761,1,1,0,0,1,.18-.588,1.149,1.149,0,0,1,.492-.392,1.867,1.867,0,0,1,1.444.015,1.243,1.243,0,0,1,.524.431,1.088,1.088,0,0,1,.192.635v.048a.07.07,0,0,1-.021.057.087.087,0,0,1-.057.021h-.815a.069.069,0,0,1-.057-.021.074.074,0,0,1-.021-.057v-.006a.389.389,0,0,0-.141-.288.545.545,0,0,0-.384-.129.467.467,0,0,0-.267.069.213.213,0,0,0-.1.189.2.2,0,0,0,.072.159.7.7,0,0,0,.219.126c.1.039.249.093.453.156.027.012.153.048.371.114a1.159,1.159,0,0,1,.549.351.913.913,0,0,1,.222.618,1.016,1.016,0,0,1-.18.608,1.144,1.144,0,0,1-.5.393,1.9,1.9,0,0,1-.746.138,1.964,1.964,0,0,1-.773-.144Z" transform="translate(-742.21 -678.93)" fill="#fff"/>
                    <path id="Path_18310" data-name="Path 18310" d="M755.019,679.07h.822a.07.07,0,0,1,.057.021.075.075,0,0,1,.021.057v3.521a.071.071,0,0,1-.021.057.089.089,0,0,1-.057.021h-.831a.071.071,0,0,1-.057-.021.076.076,0,0,1-.021-.057v-1.906s0-.021-.009-.024a.02.02,0,0,0-.021.012l-.356.584a.106.106,0,0,1-.1.054h-.4a.106.106,0,0,1-.1-.054l-.356-.584s-.015-.015-.021-.012-.012.009-.012.024v1.906a.071.071,0,0,1-.021.057.088.088,0,0,1-.057.021h-.83a.07.07,0,0,1-.057-.021.075.075,0,0,1-.021-.057v-3.521a.07.07,0,0,1,.021-.057.074.074,0,0,1,.057-.021h.821a.1.1,0,0,1,.1.054l.662,1.067c.012.021.021.021.033,0l.663-1.067a.1.1,0,0,1,.1-.054Z" transform="translate(-749.472 -679.028)" fill="#fff"/>
                  </g>
                </g>
              </g>
              <g id="Group_304" data-name="Group 304" transform="translate(38.63 231.385)">
                <g id="Group_302" data-name="Group 302" transform="translate(0 12.866)">
                  <path id="Path_18311" data-name="Path 18311" d="M387.96,895.778h-1.2v2.344H385.55V891.9h2.412a1.942,1.942,0,1,1,0,3.878Zm-.06-2.8h-1.136v1.705H387.9a.821.821,0,0,0,.9-.848A.83.83,0,0,0,387.9,892.982Z" transform="translate(-385.55 -891.846)" fill="#fff"/>
                  <path id="Path_18312" data-name="Path 18312" d="M408.633,898.112l-1.214-2.481h-.875v2.481H405.33V891.89h2.44a1.882,1.882,0,0,1,2.02,1.906,1.674,1.674,0,0,1-1.136,1.633l1.39,2.682h-1.406Zm-.944-5.137h-1.145v1.642h1.145a.823.823,0,1,0,0-1.642Z" transform="translate(-399.402 -891.839)" fill="#fff"/>
                  <path id="Path_18313" data-name="Path 18313" d="M425.86,898.112V891.89h4.1v1.085h-2.883v1.459h2.454v1.082h-2.454v1.51h2.883v1.085Z" transform="translate(-413.779 -891.839)" fill="#fff"/>
                  <path id="Path_18314" data-name="Path 18314" d="M445.382,898.047a2.92,2.92,0,0,1-2.272-.822l.785-.785a2.039,2.039,0,0,0,1.5.525c.716,0,1.1-.27,1.1-.77a.691.691,0,0,0-.192-.524.93.93,0,0,0-.552-.219l-.752-.1a2.1,2.1,0,0,1-1.2-.515,1.644,1.644,0,0,1-.447-1.223,1.917,1.917,0,0,1,2.167-1.888,2.669,2.669,0,0,1,2.011.726l-.77.761a1.737,1.737,0,0,0-1.277-.429c-.647,0-.962.357-.962.785a.614.614,0,0,0,.183.447,1.083,1.083,0,0,0,.575.246l.734.1a2.072,2.072,0,0,1,1.19.479,1.741,1.741,0,0,1,.479,1.319c0,1.2-1,1.888-2.308,1.888Z" transform="translate(-425.859 -891.72)" fill="#fff"/>
                  <path id="Path_18315" data-name="Path 18315" d="M463.68,898.112V891.89h4.1v1.085H464.9v1.459h2.454v1.082H464.9v1.51h2.883v1.085Z" transform="translate(-440.264 -891.839)" fill="#fff"/>
                  <path id="Path_18316" data-name="Path 18316" d="M486.467,898.112,484,894.294v3.818H482.79V891.89h1.085l2.464,3.809V891.89h1.214v6.222Z" transform="translate(-453.648 -891.839)" fill="#fff"/>
                  <path id="Path_18317" data-name="Path 18317" d="M506.288,892.975v5.14h-1.214v-5.14H503.45V891.89h4.465v1.085h-1.624Z" transform="translate(-468.116 -891.839)" fill="#fff"/>
                  <path id="Path_18318" data-name="Path 18318" d="M523.11,898.112V891.89h4.1v1.085h-2.883v1.459h2.455v1.082h-2.455v1.51h2.883v1.085Z" transform="translate(-481.884 -891.839)" fill="#fff"/>
                  <path id="Path_18319" data-name="Path 18319" d="M546.107,897.518a2.264,2.264,0,0,1-1.642.594H542.22V891.89h2.245a2.262,2.262,0,0,1,1.642.593,3.131,3.131,0,0,1,.629,2.49,3.247,3.247,0,0,1-.629,2.541Zm-.848-4.16a1.079,1.079,0,0,0-.908-.383h-.917v4.055h.917a1.087,1.087,0,0,0,.908-.384c.228-.279.26-.725.26-1.669S545.484,893.64,545.259,893.358Z" transform="translate(-495.266 -891.839)" fill="#fff"/>
                  <path id="Path_18320" data-name="Path 18320" d="M573.734,898.112h-2.6V891.89h2.5a1.7,1.7,0,0,1,1.924,1.747,1.516,1.516,0,0,0,.087,2.685,1.72,1.72,0,0,1-1.906,1.792Zm-.2-5.137h-1.187v1.432h1.187a.721.721,0,1,0,0-1.432Zm.078,2.523h-1.268v1.528h1.268a.767.767,0,1,0,0-1.531Z" transform="translate(-515.512 -891.839)" fill="#fff"/>
                  <path id="Path_18321" data-name="Path 18321" d="M592.535,895.561v2.55h-1.2v-2.55l-1.87-3.671h1.319l1.163,2.509,1.145-2.509h1.319Z" transform="translate(-528.348 -891.839)" fill="#fff"/>
                </g>
                <g id="Group_303" data-name="Group 303" transform="translate(83.292)">
                  <path id="Path_18322" data-name="Path 18322" d="M674.685,848.955c.309-.066.623-.12.938-.165l1.481,8.44a5.764,5.764,0,0,0-.941.165Zm-.381,9.311a5.514,5.514,0,0,1,.995-.569l-4.253-7.421c-.339.18-.668.372-.989.578Zm-2.413,4.676a5.642,5.642,0,0,1,.078-.935H663.5c-.018.3-.03.593-.03.893q0,.423.027.836h8.452a5.744,5.744,0,0,1-.057-.794m11.475,0a5.739,5.739,0,0,1-11.394.971l-7.957,2.919a14.45,14.45,0,0,0,.647,1.81l7.906-2.9-6.455,5.461a14.212,14.212,0,0,0,1.346,1.621l6.036-5.1-3.938,6.9a14.017,14.017,0,0,0,1.981,1.16l3.7-6.479-1.292,7.373a14,14,0,0,0,2.445.431l1.2-6.89,1.208,6.894a13.85,13.85,0,0,0,2.557-.453l-1.121-6.4,3.228,5.631a14.085,14.085,0,0,0,2.494-1.466L683,869.266l4.529,3.824a14.277,14.277,0,0,0,1.927-2.355l-4.049-3.417,4.954,1.817a14.373,14.373,0,0,0,1.055-3.015l-4.349-1.592h4.622a14.509,14.509,0,0,0,.093-1.618,14.179,14.179,0,0,0-.126-1.867h-8.622a5.733,5.733,0,0,1,.327,1.909m-11.316-1.3a5.684,5.684,0,0,1,.542-1.439l-7.969-2.922a14.125,14.125,0,0,0-.524,1.448l7.954,2.913Zm16.258-8.116-6.489,5.478a5.811,5.811,0,0,1,.446.537l6.486-5.476c-.144-.183-.291-.363-.444-.539m-3.213-2.754c-.228-.144-.459-.282-.7-.411l-4.253,7.409a5.862,5.862,0,0,1,.7.4Zm-11.347,7.948-6.506-5.5c-.3.33-.587.671-.857,1.028l6.491,5.488a5.7,5.7,0,0,1,.875-1.019m4.463-1.493a5.67,5.67,0,0,1,.848.15l1.477-8.437c-.279-.06-.564-.108-.848-.15l-1.481,8.437Z" transform="translate(-663.47 -848.79)" fill="#fff"/>
                  <path id="Path_18323" data-name="Path 18323" d="M779.893,886.226V871.58h5.337a6.193,6.193,0,0,1,4.211,1.321,4.622,4.622,0,0,1,1.514,3.671,4.31,4.31,0,0,1-.609,2.263,5.338,5.338,0,0,1-1.552,1.666l3.584,5.724H788.12l-2.562-4.7h-1.966v4.7h-3.7Zm4.819-11.814h-1.118v4.28h1.079q2.526,0,2.523-2.158c0-1.438-.827-2.119-2.487-2.119Z" transform="translate(-744.999 -864.75)" fill="#fff"/>
                  <path id="Path_18324" data-name="Path 18324" d="M822.519,886.226V874.721H818.03V871.58h12.893v3.141h-4.49v11.505h-3.911Z" transform="translate(-771.709 -864.75)" fill="#fff"/>
                  <path id="Path_18325" data-name="Path 18325" d="M861.31,886.219l5.089-7.633-4.741-7.016h4.567l2.584,4.511,2.562-4.511H875.8l-4.8,7.19,5.068,7.459h-4.588l-2.949-4.972-2.793,4.972Z" transform="translate(-802.018 -864.743)" fill="#fff"/>
                </g>
              </g>
            </g>
          </g>
        </g>
      </g>
    </g>
  </g>
</svg>
